<?xml version="1.0"?>
<svg xmlns="http://www.w3.org/2000/svg" xmlns:xlink="http://www.w3.org/1999/xlink" xmlns:svgjs="http://svgjs.com/svgjs" version="1.1" width="512" height="512" x="0" y="0" viewBox="0 0 512 512" style="enable-background:new 0 0 512 512" xml:space="preserve" class=""><g transform="matrix(6.123233995736766e-17,1,-1,6.123233995736766e-17,511.9419708251953,0.04637145996090908)"><g xmlns="http://www.w3.org/2000/svg"><g id="Paper_Plane_1_"><g><path d="m490.449 147.218-175.433 74.884-186.676-93.762 93.762 186.676-74.884 175.433-147.218-490.449z" fill="#bfe285" data-original="#ffe566" style="" class=""/></g><g><path d="m421.736 345.296h30v182.879h-30z" fill="#ff6666" transform="matrix(.707 -.707 .707 .707 -180.902 436.736)" data-original="#66ccff" style="" class=""/></g><g><path d="m431.538 244.258h30v150h-30z" fill="#ff4848" transform="matrix(.707 -.707 .707 .707 -94.962 409.259)" data-original="#59abff" style="" class=""/></g><g><path d="m304.258 371.538h30v150h-30z" fill="#ff6666" transform="matrix(.707 -.707 .707 .707 -222.241 356.538)" data-original="#66ccff" style="" class=""/></g></g><path d="m434.539 339.993h15v182.879h-15z" fill="#ff4848" transform="matrix(.707 -.707 .707 .707 -175.599 438.933)" data-original="#59abff" style="" class=""/><path d="m315.016 222.102 175.433-74.884-490.449-147.218 128.34 128.34z" fill="#a3d84b" data-original="#ffbe40" style="" class=""/><path d="m315.016 222.102 23.334 116.248-116.248-23.334-199.828-292.742z" fill="#a3d84b" data-original="#ffbe40" style="" class=""/><path d="m315.016 222.102-292.742-199.828 316.076 316.076z" fill="#87c226" data-original="#ff9f40" style="" class=""/></g></g></svg>
