<?xml version="1.0" encoding="utf-8"?>
<!-- Generator: Adobe Illustrator 23.0.0, SVG Export Plug-In . SVG Version: 6.00 Build 0)  -->
<svg version="1.1" id="Calque_1" xmlns="http://www.w3.org/2000/svg" xmlns:xlink="http://www.w3.org/1999/xlink" x="0px" y="0px"
	 viewBox="0 0 246.4 312.5" style="enable-background:new 0 0 246.4 312.5;" xml:space="preserve">
<style type="text/css">
	.st0{fill:#00382A;}
</style>
<g>
	<path class="st0" d="M74,312.5c-22.4-9.5-40.1-23.6-52.7-43.7c-15-23.9-22.8-49.9-21-78.3c1.2-18.8,7.6-36,16.7-52.4
		c15-27,36-49,58.4-69.9c15.7-14.6,27.2-31.9,31.1-53.5c0.5-2.9,0.4-6,0.8-8.9c0.8-6,4.3-7.5,9.3-4.1c23.9,16.4,37.1,39.6,41.9,67.7
		c1.7,10.1,2.1,20.5,2.9,30.8c0.2,2.2,0,4.5,0,8c7.9-6.3,12.6-13.4,17-20.8c3.4-5.7,6-11.9,8.9-17.9c2.8-6,5.5-6.8,10.7-2.6
		c16.7,13.5,28.8,30.4,36.7,50.3c11,27.7,12.8,56.6,11.2,86c-1.4,25.4-8.4,48.8-23.2,69.6c-12.3,17.3-28.8,29.4-48.1,37.9
		c-0.7,0.3-1.6,0.5-3,0.9c-0.4-5.3-0.8-10.3-1.3-15.4c-3.3-32.5-13.4-62.4-34.7-87.8c-2.5-2.9-5.1-5.7-7.9-8.4
		c-4.4-4.3-9.3-2.7-10.7,3.3c-0.1,0.6-0.2,1.3-0.3,2c-0.9,16.8-7.6,31.6-16.1,45.7c-8.6,14.3-17.8,28.2-22.7,44.3
		C76.4,300.8,75.4,306.4,74,312.5z"/>
</g>
</svg>
