<?xml version="1.0" encoding="utf-8"?>
<!-- Generator: Adobe Illustrator 23.0.0, SVG Export Plug-In . SVG Version: 6.00 Build 0)  -->
<svg version="1.1" id="Calque_1" xmlns="http://www.w3.org/2000/svg" xmlns:xlink="http://www.w3.org/1999/xlink" x="0px" y="0px"
	 viewBox="0 0 695.9 639.1" style="enable-background:new 0 0 695.9 639.1;" xml:space="preserve">
<style type="text/css">
	.st0{fill:#00382A;}
</style>
<g>
	<path class="st0" d="M212.1,340.6c0-42.7,0.1-85.3,0-128c0-15.7,6.3-27.4,20.6-34.2c19.5-9.3,43.6,4.2,46.3,25.7
		c4.3,34.5,8.7,69.1,12.9,103.6c0.6,4.6,1.9,8.2,6.7,9.3c5.1,1.1,7.6-2.3,9.7-6.1c20.3-36.2,40.7-72.3,61-108.5
		c20.3-36.2,40.6-72.3,61.1-108.4c7.9-14,22-20.1,35.8-15.9c17.8,5.4,26.6,26.2,17.6,43c-10.1,18.8-20.9,37.2-31.5,55.7
		c-22.1,38.8-44.2,77.6-66.3,116.4c-3.1,5.5-3.9,10.9-0.4,16.5c3.4,5.4,8.3,8.1,14.7,7.7c6.3-0.4,10.4-4.1,13.3-9.3
		c10.5-18.4,21-36.7,31.5-55.1c31.8-55.7,63.5-111.5,95.4-167.1c10.9-19.1,35-22.4,48.6-7.2c8.7,9.7,10.8,22.6,4.6,34.4
		c-8.4,15.7-17.4,31.1-26.2,46.6c-33.7,59-67.4,118.1-101.1,177.1c-2.7,4.8-4.5,9.8-2.5,15.2c2.3,6.1,6.5,10.2,13.2,10.7
		c6.7,0.6,11.9-2.3,15.3-8.3c15.3-26.8,30.6-53.5,45.9-80.3c24.7-43.2,49.4-86.5,74.2-129.7c11-19.1,34.5-22.3,48.9-6.8
		c8.8,9.4,10.1,24.2,3,36.8c-11.5,20.5-23.3,40.8-35,61.2c-27.9,48.9-55.9,97.8-83.8,146.7c-6.4,11.2-2.5,22.2,8.6,25.3
		c7.2,2,13.7-1,18.3-8.8c7.6-13.1,15.1-26.3,22.6-39.5c14.3-25,28.5-50.1,42.8-75.1c7.4-12.9,20.4-19.5,33.8-17.2
		c18.1,3,29.4,23.2,21.9,40.1c-3.8,8.5-8.8,16.4-13.4,24.5C638.8,404,598.5,476.9,556,548.5c-40.1,67.6-101.6,96.2-179.1,89.7
		c-47.5-4-88.1-24.3-120.2-59.8c-28.2-31.3-43.6-68.5-44.3-110.8c-0.7-42.3-0.2-84.7-0.2-127C212.2,340.6,212.1,340.6,212.1,340.6z"
		/>
	<path class="st0" d="M211.8,558.4c-10.6-9-21.3-18.1-31.9-27.1c-43.7-37.3-87.5-74.5-131.1-111.9C35.5,408,22,396.8,9.2,384.9
		C-1.7,374.8-4.2,361.6,0,347.7c6.5-21.7,30.7-32.5,51.1-22.7c15.9,7.6,31.2,16.6,46.7,24.9c9.7,5.2,19.3,10.5,29,15.7
		c3.9,2.1,7.9,4.1,12,0.6c4.3-3.6,2.9-8.1,1.3-12.4c-20-55.1-40.1-110.2-60.1-165.3c-5.1-13.9-10.3-27.8-15.2-41.8
		c-6.9-19.7,4.6-38.7,24.5-41c13-1.5,25.8,5.9,30.9,19c8.2,20.9,15.8,42.1,23.5,63.2c14.2,38.9,28.4,77.9,42.5,116.9
		c1.1,3,1.8,6.4,1.8,9.7c0.1,48.3,0,96.6,0.1,145c0.1,23.6,3.1,46.9,11.7,69.1c3.8,9.9,8.3,19.5,12.5,29.3
		C212.2,558,212,558.2,211.8,558.4z"/>
	<path class="st0" d="M309.7,259.7c-2.5-20.4-4.7-39.5-7.3-58.7c-3-21.7-15.3-36.4-35-45.1c-3.7-1.6-5.8-3.5-7.2-7.4
		c-12.8-35.6-25.8-71.1-38.7-106.6c-5.5-15.2-0.9-30,11.6-37.7C248.2-4.8,268,1,276,17.3c2.6,5.4,4.5,11.1,6.6,16.7
		c19.6,54,39.2,108,58.7,162c0.8,2.1,1.3,5.2,0.3,6.9C331.4,221.6,320.9,240.1,309.7,259.7z"/>
	<path class="st0" d="M228.4,154c-27.2,11.5-41,31.8-41,61.4c-0.4-1-0.9-2-1.3-3c-18.6-51-37.1-102-55.7-152.9
		c-4-10.9-3.7-21.2,3.6-30.7c12.4-16.2,36.1-15.8,47.9,0.8c2.4,3.4,4.3,7.2,5.7,11c13.4,36.6,26.6,73.2,39.9,109.8
		C227.8,151.5,228.1,152.6,228.4,154z"/>
	<path class="st0" d="M363.3,164.3c-6-16.4-11.5-31.6-16.9-46.7c-1.6-4.4-3.2-8.8-4-13.3c-2.8-14.8,6.2-29.4,20.5-34
		c13.9-4.4,28.7,2.3,35.6,15.6c3.2,6.2,3.3,11.1-0.5,17.4c-10.5,17.3-20.1,35.2-30.1,52.9C366.6,158.5,365.3,160.7,363.3,164.3z"/>
</g>
</svg>
