<?xml version="1.0" encoding="utf-8"?>
<!-- Generator: Adobe Illustrator 23.0.0, SVG Export Plug-In . SVG Version: 6.00 Build 0)  -->
<svg version="1.1" id="Calque_1" xmlns="http://www.w3.org/2000/svg" xmlns:xlink="http://www.w3.org/1999/xlink" x="0px" y="0px"
	 viewBox="0 0 283 293.2" style="enable-background:new 0 0 283 293.2;" xml:space="preserve">
<style type="text/css">
	.st0{fill:#00382A;}
</style>
<g>
	<path class="st0" d="M144.1,0c46.1,1,85.1,18.6,116.6,52c7.8,8.3,13.9,18.3,20.6,27.5c2.8,3.9,1.9,7-2.2,9.6
		c-16.5,10.6-33,21.4-49.5,32c-4.7,3-6.9,2.2-10.2-3.5c-11.9-20.5-29.1-34.7-51.8-41.3c-8.5-2.5-17.7-2.8-26.6-3.7
		c-3.1-0.3-4.4-1.1-4.7-4.2c-2.4-21.3-5-42.7-7.6-64c-0.4-3.4,0.7-4.6,4-4.5C136.4,0.1,140.3,0,144.1,0z"/>
	<path class="st0" d="M116.7,2.2c1.3,10.4,2.7,20.6,3.9,30.8c1.5,12.2,2.7,24.5,4.2,36.7c0.4,3-0.4,4.4-3.6,5.2
		c-25.5,6-44.7,20.6-57.9,43.2c-3.2,5.5-5.4,6.1-10.4,2.9C36.8,110.5,20.6,100,4.4,89.5c-5.1-3.3-5.6-5.2-2.5-10.3
		c25.5-41.9,62.8-67,110.5-77C113.7,1.9,115,2.2,116.7,2.2z"/>
	<path class="st0" d="M141.7,293.2c-20.7,0.1-35.3-14.7-36.5-36.4c-2-35.2,0.2-70.2,2-105.3c0.1-1.9,2.2-5.3,3.2-5.2
		c2.2,0.2,5.2,1.5,6.4,3.3c13.7,20.7,27.3,41.4,40.5,62.4c6.3,10,12.3,20.2,17.2,30.9C185.4,266.8,167.9,293.1,141.7,293.2z"/>
</g>
</svg>
