<?xml version="1.0" encoding="utf-8"?>
<!-- Generator: Adobe Illustrator 23.0.0, SVG Export Plug-In . SVG Version: 6.00 Build 0)  -->
<svg version="1.1" id="Capa_1" xmlns="http://www.w3.org/2000/svg" xmlns:xlink="http://www.w3.org/1999/xlink" x="0px" y="0px"
	 viewBox="0 0 417.9 417.9" style="enable-background:new 0 0 417.9 417.9;" xml:space="preserve">
<style type="text/css">
	.st0{fill:#00382A;}
</style>
<g>
	<path class="st0" d="M209.1,104.6c67.3,0,134.6,0,202,0c6.9,0,6.9,0,6.9,6.7c0,91.5-0.2,183,0.2,274.4
		c0.1,18.4-13.5,32.2-32.1,32.1c-118-0.4-236-0.4-353.9,0C13.9,418-0.1,404.6,0,385.8c0.4-91.5,0.2-183,0.2-274.4
		c0-6.7,0-6.7,6.9-6.7C74.4,104.6,141.8,104.6,209.1,104.6z M209.6,148.7c-51.3,0-102.7,0-154,0c-9,0-11.4,2.2-11.4,11.1
		c0,67.7,0,135.3,0,203c0,8.7,2.6,11.2,11.4,11.2c102.3,0,204.6,0,307,0c8.8,0,11.6-2.8,11.6-11.8c0-67.3,0-134.7,0-202
		c0-9-2.6-11.5-11.6-11.5C311.6,148.7,260.6,148.7,209.6,148.7z"/>
	<path class="st0" d="M417.7,88.4c-139.4,0-278.1,0-417.2,0c-0.1-1.9-0.3-3.5-0.3-5.1c0-17.7-0.1-35.3,0-53C0.3,12.3,12.6,0,30.7,0
		c118.8,0,237.6,0,356.4,0c18.4,0,30.7,12.2,30.8,30.6c0.1,17.5,0,35,0,52.5C417.9,84.7,417.8,86.4,417.7,88.4z M90,36.6
		c-12.2,0-24.3,0-36.5,0c-5.7,0-9.1,2.9-9.2,7.6c-0.1,4.9,3.3,7.9,9.3,7.9c23.8,0,47.7,0,71.5,0c5.9,0,9.6-3.1,9.5-7.8
		c0-4.8-3.7-7.7-9.6-7.7C113.3,36.5,101.7,36.6,90,36.6z M306.4,44.4c0-8.5-6.7-15.3-15.1-15.3c-8.3,0-15.4,7.1-15.4,15.3
		c0,8.1,7.3,15.4,15.4,15.4C299.6,59.8,306.4,52.8,306.4,44.4z M343.4,44.5c0.1,8.3,7.2,15.4,15.4,15.3c8.1-0.1,15.3-7.5,15.2-15.5
		c-0.1-8.4-7.2-15.3-15.5-15.1C350.1,29.2,343.3,36.1,343.4,44.5z"/>
	<path class="st0" d="M208.5,208.6c-25.8,0-51.6,0-77.5,0c-1.5,0-3,0.1-4.5-0.1c-4.2-0.6-6.8-2.9-6.7-7.3c0.1-4.3,2.8-6.5,7-7.1
		c1.1-0.1,2.3,0,3.5,0c52.5,0,105,0,157.4,0c1.2,0,2.3-0.1,3.5,0c4.2,0.5,6.9,2.8,7,7.1c0.1,4.3-2.6,6.7-6.8,7.2
		c-1.5,0.2-3,0.1-4.5,0.1C260.9,208.6,234.7,208.6,208.5,208.6z"/>
</g>
</svg>
