<svg xmlns="http://www.w3.org/2000/svg" viewBox="0 0 612 612">
  <defs />
  <path xmlns="http://www.w3.org/2000/svg" fill="#00382a"
    d="M306.001 0C137.002 0 0 137.001 0 305.999 0 474.999 137.001 612 306.001 612S612 474.999 612 305.999C612 137.001 474.999 0 306.001 0zm37.216 450.638c0 20.553-16.663 37.216-37.216 37.216-20.555 0-37.216-16.661-37.216-37.216V313.289c-10.067-6.66-16.709-18.087-16.709-31.062 0-20.553 16.663-37.216 37.216-37.216h16.709c20.553 0 37.216 16.663 37.216 37.216v168.411zm-37.216-226.424c-27.406 0-49.622-22.215-49.622-49.62s22.216-49.622 49.622-49.622c27.402 0 49.622 22.216 49.622 49.622s-22.22 49.62-49.622 49.62z"
    data-original="#000000" />
</svg>
