<?xml version="1.0" encoding="utf-8"?>
<!-- Generator: Adobe Illustrator 23.0.0, SVG Export Plug-In . SVG Version: 6.00 Build 0)  -->
<svg version="1.1" id="Calque_1" xmlns:svgjs="http://svgjs.com/svgjs"
	 xmlns="http://www.w3.org/2000/svg" xmlns:xlink="http://www.w3.org/1999/xlink" x="0px" y="0px" viewBox="0 0 512 476.8"
	 style="enable-background:new 0 0 512 476.8;" xml:space="preserve">
<style type="text/css">
	.st0{fill:#00382A;}
</style>
<path class="st0" d="M503.4,215.5l-77.6-77.6V48.2c0-16.2-13.1-29.3-29.4-29.3c-16.2,0-29.3,13.1-29.3,29.3v30.9l-57.8-57.8
	c-28.6-28.5-78.2-28.5-106.7,0.1l-194,194c-11.5,11.5-11.5,30,0,41.5c11.5,11.5,30.1,11.5,41.5,0l194-194c6.3-6.3,17.5-6.3,23.7,0
	l194,194c5.8,5.7,13.3,8.6,20.8,8.6c7.5,0,15-2.9,20.8-8.6C514.9,245.5,514.9,226.9,503.4,215.5z"/>
<path class="st0" d="M436.8,289.2L266.2,118.6c-5.6-5.6-14.8-5.6-20.4,0L75.1,289.2c-2.7,2.7-4.2,6.4-4.2,10.2v124.4
	c0,29.2,23.7,52.9,52.9,52.9h84.5h95.4h84.5c29.2,0,52.9-23.7,52.9-52.9V299.5C441.1,295.6,439.5,291.9,436.8,289.2z M258.2,413.4
	c-1.3,0.9-3,0.9-4.3,0c-3.2-1.7-83.1-46.4-83.1-92.2c0-26.7,21.7-48.4,48.4-48.4c14.2-0.2,27.8,6.1,36.9,17.1
	c9.2-10.9,22.7-17.1,36.9-17.1c26.7,0,48.4,21.7,48.4,48.4C341.3,367.6,261.4,411.7,258.2,413.4z"/>
</svg>
