<svg xmlns="http://www.w3.org/2000/svg" viewBox="0 0 61 61">
  <defs />
  <path xmlns="http://www.w3.org/2000/svg" fill="#00382a"
    d="M3.729 10.8c2.407 1.527 5.989 3.092 7.567 5.373-1.931 2.585-2.455 4.388-1.513 5.346l10.8 10.8c-3.05 3.059.5-.5-17.879 17.877a5.731 5.731 0 108.1 8.1l17.878-17.878 10.8 10.8c1.295 1.278 3.9-.418 5.35-1.512 2.276 1.581 3.841 5.158 5.367 7.565a5.849 5.849 0 109.08-7.263c-1.719-1.722-6.594-3.322-8.575-6.175 1.447-1.922 2.661-4.186 1.508-5.353l-7.3-7.3a47.186 47.186 0 005.927-2.767 29 29 0 005.775-4.237c8.83-8.809 2.719-23.96-9.769-23.96a14.075 14.075 0 00-10.022 4.167A34.756 34.756 0 0029.8 16.069l-7.289-7.292c-.951-.934-2.752-.413-5.34 1.52-2.281-1.579-3.849-5.165-5.371-7.57A5.849 5.849 0 103.729 10.8zm21.712 21.125a3.725 3.725 0 012.532 6.368c-.1.1.2-.191-.884.894a7.109 7.109 0 00-5.289-5.263c1.154-1.157.793-.783.905-.9a3.728 3.728 0 012.736-1.099zM55.868 6.546a6.221 6.221 0 01-.038 4.385c-2.885 9.477-16.954 16.512-25.76 21.461-.07-.1-.82.782 25.798-25.846zm-1.417-1.411L28.645 30.951c-.06-.042-.117-.087-.179-.127 4.289-7.274 8.6-15.382 14.011-20.786 4.163-4.156 9.296-6.17 11.974-4.903zM12.623 53.653c-1.4 1.4-5.056-.457-5.686-3.372a2.028 2.028 0 01.406-1.9l12.124-12.115c.335-.326.79-.498 1.256-.476 2.764-.006 5.6 3.772 4.02 5.75zm-8.536 3.26a3.756 3.756 0 01.03-5.306l.875-.874a7.234 7.234 0 005.269 5.282l-.868.868a3.757 3.757 0 01-5.306.03zm53.783-5.488a3.85 3.85 0 11-5.979 4.775c-1.457-2.3-2.991-5.8-5.461-7.793a32.307 32.307 0 002.977-2.978c2.467 3.062 7.127 4.66 8.463 5.996zm-7.189-11.65c-.063.675-1.277 2.936-4.13 5.779s-5.1 4.063-5.776 4.126L30.02 38.925a5.719 5.719 0 001.012-2.8c3.61-1.255 7.824-2.629 11.848-4.151zM55.2 22.766c-5.047 5.083-14.658 7.984-23.537 11.024 9.452-5.312 24.469-12.959 26.411-23.676A12.064 12.064 0 0155.2 22.766zm-20.886-11.6A27.232 27.232 0 0138.238 5.8a12.068 12.068 0 0112.649-2.87C40.371 4.814 32.969 19.249 27.514 28.5l3.6-10.243a42.677 42.677 0 013.201-7.095zm-5.276 6.971l-4.151 11.807a5.7 5.7 0 00-2.822 1.027L11.324 20.229a8.823 8.823 0 011.967-3.384 30.454 30.454 0 014.55-4.552 8.858 8.858 0 013.388-1.969zM4.13 3.13a3.853 3.853 0 015.979.67c1.458 2.3 3 5.811 5.466 7.8a29.917 29.917 0 00-2.975 2.975c-1.99-2.469-5.5-4.009-7.8-5.464a3.855 3.855 0 01-.67-5.981z"
    data-original="#000000" />
</svg>
