<?xml version="1.0"?>
<svg xmlns="http://www.w3.org/2000/svg" xmlns:xlink="http://www.w3.org/1999/xlink" xmlns:svgjs="http://svgjs.com/svgjs" version="1.1" width="512" height="512" x="0" y="0" viewBox="0 0 61 61" style="enable-background:new 0 0 512 512" xml:space="preserve" class=""><g><path xmlns="http://www.w3.org/2000/svg" id="Shape" d="m3.729 10.8c2.407 1.527 5.989 3.092 7.567 5.373-1.931 2.585-2.455 4.388-1.513 5.346l10.8 10.8c-3.05 3.059.5-.5-17.879 17.877-1.5316561 1.4290991-2.16154994 3.5800214-1.64275868 5.6095904.51879126 2.0295689 2.10359934 3.614377 4.1331683 4.1331683 2.02956895.5187912 4.18049133-.1111026 5.60959038-1.6427587.33-.329-2.8 2.8 17.878-17.878l10.8 10.8c1.295 1.278 3.9-.418 5.35-1.512 2.276 1.581 3.841 5.158 5.367 7.565 1.2008073 1.8950821 3.3797765 2.9363234 5.6085956 2.6801212s4.1146969-1.7646967 4.8541877-3.8828155c.7394908-2.1181189.2022722-4.4725799-1.3827833-6.0603057-1.719-1.722-6.594-3.322-8.575-6.175 1.447-1.922 2.661-4.186 1.508-5.353l-7.3-7.3c2.0372935-.7841215 4.0177172-1.7086757 5.927-2.767 2.0926876-1.1682697 4.0324793-2.5914554 5.775-4.237 8.83-8.809 2.719-23.96-9.769-23.96-3.7634139-.00671673-7.3727723 1.49400131-10.022 4.167-3.0895587 3.39346836-5.4764757 7.3652058-7.023 11.686l-7.289-7.292c-.951-.934-2.752-.413-5.34 1.52-2.281-1.579-3.849-5.165-5.371-7.57-1.2854302-2.02626102-3.67806396-3.06184471-6.03514513-2.61214152-2.35708117.4497032-4.20037247 2.29345127-4.64949163 4.65064379-.44911917 2.35719251.58705731 4.74956958 2.61363676 6.03449773zm21.712 21.125c1.4920944.0367729 2.8181788.9606304 3.3696419 2.3475645s.2218187 2.969131-.8376419 4.0204355c-.1.1.2-.191-.884.894-.6266902-2.6129021-2.6730413-4.6491936-5.289-5.263 1.154-1.157.793-.783.905-.9.7222296-.7267421 1.7117274-1.1242048 2.736-1.099zm30.427-25.379c.519992 1.41782777.5064856 2.97639689-.038 4.385-2.885 9.477-16.954 16.512-25.76 21.461-.07-.1-.82.782 25.798-25.846zm-1.417-1.411-25.806 25.816c-.06-.042-.117-.087-.179-.127 4.289-7.274 8.6-15.382 14.011-20.786 4.163-4.156 9.296-6.17 11.974-4.903zm-41.828 48.518c-1.4 1.4-5.056-.457-5.686-3.372-.19659246-.6611659-.04364603-1.3769251.406-1.9 13.544-13.535 11.868-11.86 12.124-12.115.3347308-.3256807.7894945-.4980275 1.256-.476 2.764-.006 5.6 3.772 4.02 5.75zm-8.536 3.26c-1.45469957-1.474403-1.44127852-3.8481404.03-5.306l.875-.874c.64292285 2.6004085 2.67018367 4.6326711 5.269 5.282l-.868.868c-1.45809013 1.4707298-3.83137268 1.4841483-5.306.03zm53.783-5.488c1.046169 1.0450625 1.401341 2.5969659.9138522 3.9930247-.4874887 1.3960588-1.731485 2.3895497-3.2007844 2.5562378-1.4692993.166688-2.9042347-.5228855-3.6920678-1.7742625-1.457-2.3-2.991-5.8-5.461-7.793 1.0560373-.9268724 2.0504823-1.9216515 2.977-2.978 2.467 3.062 7.127 4.66 8.463 5.996zm-7.189-11.65c-.063.675-1.277 2.936-4.13 5.779s-5.1 4.063-5.776 4.126l-10.755-10.755c.5786213-.827618.9277869-1.7936888 1.012-2.8 3.61-1.255 7.824-2.629 11.848-4.151zm4.519-17.009c-5.047 5.083-14.658 7.984-23.537 11.024 9.452-5.312 24.469-12.959 26.411-23.676 1.5843529 4.4173553.4632672 9.3526289-2.874 12.652zm-20.886-11.6c1.0839541-1.94220378 2.4017706-3.74429422 3.924-5.366 3.3001799-3.33376084 8.2332195-4.45304485 12.649-2.87-10.516 1.884-17.918 16.319-23.373 25.57l3.6-10.243c.8486513-2.4575683 1.9201065-4.8324432 3.201-7.095zm-5.276 6.971-4.151 11.807c-1.0155566.0839271-1.9900455.4385693-2.822 1.027l-10.741-10.742c.3940339-1.2610439 1.06624-2.4174982 1.967-3.384 1.351624-1.6737884 2.8768057-3.1996406 4.55-4.552.9681763-.9010331 2.1258333-1.5738273 3.388-1.969zm-24.908-15.007c.82840219-.82652561 1.98753592-1.23178091 3.15046854-1.10146399 1.16293261.13031692 2.20361789.78208146 2.82853146 1.77146399 1.458 2.3 3 5.811 5.466 7.8-1.0602542.9206214-2.0543786 1.9147458-2.975 2.975-1.99-2.469-5.5-4.009-7.8-5.464-.98945634-.62533766-1.64120477-1.66635549-1.77151081-2.82958005-.13030605-1.16322455.27494575-2.32264903 1.10151081-3.15141995z" fill="#00382a" data-original="#000000" style="" class=""/></g></svg>
