<?xml version="1.0"?>
<svg xmlns="http://www.w3.org/2000/svg" xmlns:xlink="http://www.w3.org/1999/xlink" xmlns:svgjs="http://svgjs.com/svgjs" version="1.1" width="512" height="512" x="0" y="0" viewBox="0 0 512 512" style="enable-background:new 0 0 512 512" xml:space="preserve"><g><path xmlns="http://www.w3.org/2000/svg" d="m264.03125 221.191406c-2.554688 0-5.15625.25-7.734375.738282-5.734375 1.089843-11.574219-1.253907-14.976563-5.992188-7.75-10.792969-20.277343-17.238281-33.519531-17.238281-13.242187 0-25.773437 6.445312-33.519531 17.238281-3.402344 4.738281-9.238281 7.082031-14.972656 5.992188-2.582032-.488282-5.1875-.738282-7.742188-.738282-22.734375 0-41.234375 18.5-41.234375 41.234375s18.5 41.230469 41.234375 41.230469c8.285156 0 15 6.71875 15 15v26.773438h82.464844v-26.773438c0-8.28125 6.71875-15 15-15 22.738281 0 41.234375-18.496094 41.234375-41.230469.003906-22.734375-18.496094-41.234375-41.234375-41.234375zm0 0" fill="#00382a" data-original="#000000" style=""/><path xmlns="http://www.w3.org/2000/svg" d="m399.53125 30h1.070312c8.285157 0 15-6.714844 15-15s-6.714843-15-15-15h-345.4375c-30.417968 0-55.164062 24.746094-55.164062 55.167969v401.667969c0 30.417968 24.746094 55.164062 55.164062 55.164062h305.269532c30.421875 0 55.167968-24.746094 55.167968-55.164062v-321.335938c0-15.152344-6.144531-28.894531-16.066406-38.875v-66.625zm-120.5 302.070312v76.5625c0 8.285157-6.714844 15-15 15h-112.460938c-8.285156 0-15-6.714843-15-15v-76.5625c-32.101562-6.90625-56.234374-35.511718-56.234374-69.644531 0-39.277343 31.953124-71.234375 71.234374-71.234375 1.390626 0 2.789063.042969 4.191407.128906 13.382812-14.300781 32.25-22.621093 52.039062-22.621093 19.792969 0 38.65625 8.320312 52.042969 22.621093 1.398438-.085937 2.796875-.128906 4.1875-.128906 39.28125 0 71.234375 31.957032 71.234375 71.234375.003906 34.132813-24.132813 62.738281-56.234375 69.644531zm90.5-250.972656c-2.960938-.492187-6-.761718-9.101562-.761718h-305.265626c-13.875 0-25.164062-11.289063-25.164062-25.167969 0-13.878907 11.289062-25.167969 25.164062-25.167969h314.367188zm0 0" fill="#00382a" data-original="#000000" style=""/><path xmlns="http://www.w3.org/2000/svg" d="m166.570312 375.433594h82.464844v18.199218h-82.464844zm0 0" fill="#00382a" data-original="#000000" style=""/></g></svg>
