<?xml version="1.0"?>
<svg xmlns="http://www.w3.org/2000/svg" xmlns:xlink="http://www.w3.org/1999/xlink" xmlns:svgjs="http://svgjs.com/svgjs" version="1.1" width="512" height="512" x="0" y="0" viewBox="0 0 512.002 512.002" style="enable-background:new 0 0 512 512" xml:space="preserve" class=""><g>
<path xmlns="http://www.w3.org/2000/svg" style="" d="M512.002,416.001c0-14.759-10.095-27.094-23.706-30.773c-12.76-39.831-21.137-81.036-24.607-122.674  l-4.108-49.311c17.216-0.496,31.087-14.574,31.087-31.908c0-12.522-7.298-23.275-17.802-28.529  c4.698-11.417,7.135-23.288,7.135-35.471c0-45.763-32.236-84.01-75.158-93.574c0.099-0.833,0.491-1.566,0.491-2.426  c0-11.76-9.573-21.333-21.333-21.333s-21.333,9.573-21.333,21.333c0,0.859,0.392,1.592,0.491,2.426  c-42.922,9.564-75.158,47.811-75.158,93.574c0,12.195,2.436,24.068,7.132,35.474c-10.503,5.254-17.798,16.005-17.798,28.526  c0,17.333,13.872,31.411,31.087,31.908l-4.108,49.301c-0.06,0.703-0.171,1.397-0.232,2.1l-5.716-8.069  c-9.719-13.719-25.563-21.906-42.365-21.906s-32.646,8.188-42.375,21.906l-22.885,32.31l-15.698-21.049  c-12.875-15.042-38.094-15.604-51.865,0.563L2.116,430.959c-2.417,3.24-2.792,7.552-0.979,11.156c1.812,3.615,5.5,5.885,9.531,5.885  h67.367l-33.409,47.167c-2.302,3.26-2.594,7.521-0.771,11.063c1.833,3.542,5.49,5.771,9.479,5.771h405.333c17.646,0,32-14.354,32-32  v-33.965C503.058,441.618,512.002,429.889,512.002,416.001z" fill="#303c42" data-original="#303c42"/>
<path xmlns="http://www.w3.org/2000/svg" style="" d="M384.002,42.667c41.167,0,74.667,33.5,74.667,74.667c0,10.99-2.542,21.729-7.552,32H316.887  c-5.021-10.26-7.552-20.99-7.552-32C309.335,76.167,342.835,42.667,384.002,42.667z" fill="#9e5f2c" data-original="#9e5f2c"/>
<path xmlns="http://www.w3.org/2000/svg" style="opacity:0.2;fill:#FFFFFF;enable-background:new    ;" d="M320.002,138.667c0-41.167,33.5-74.667,74.667-74.667  c24.75,0,46.566,12.245,60.16,30.848c-9.611-30.139-37.547-52.181-70.827-52.181c-41.167,0-74.667,33.5-74.667,74.667  c0,11.01,2.531,21.74,7.552,32h4.355C320.701,145.794,320.002,142.274,320.002,138.667z" fill=""/>
<path xmlns="http://www.w3.org/2000/svg" style="" d="M298.668,181.334c0-5.885,4.781-10.667,10.667-10.667v-0.313  c0.408,0.048,148.926,0.049,149.333,0.001v0.311c5.885,0,10.667,4.781,10.667,10.667c0,5.885-4.781,10.667-10.667,10.667H309.335  C303.449,192.001,298.668,187.219,298.668,181.334z" fill="#9e5f2c" data-original="#9e5f2c"/>
<path xmlns="http://www.w3.org/2000/svg" style="opacity:0.2;fill:#FFFFFF;enable-background:new    ;" d="M320.002,181.334c0-5.885,3.586-10.667,8-10.667v-0.288  c-11.16-0.007-18.578-0.014-18.667-0.025v0.313c-5.885,0-10.667,4.781-10.667,10.667c0,5.885,4.781,10.667,10.667,10.667h18.667  C323.587,192.001,320.002,187.219,320.002,181.334z" fill=""/>
<path xmlns="http://www.w3.org/2000/svg" style="" d="M480.002,426.667h-61.147l-15.112-21.333h76.259c5.885,0,10.667,4.781,10.667,10.667  C490.668,421.886,485.887,426.667,480.002,426.667z" fill="#9e5f2c" data-original="#9e5f2c"/>
<path xmlns="http://www.w3.org/2000/svg" style="" d="M458.668,170.667v-0.311c-0.089,0.01-7.507,0.018-18.667,0.025v0.286  c4.414,0,8,4.781,8,10.667c0,5.885-3.586,10.667-8,10.667h18.667c5.885,0,10.667-4.781,10.667-10.667  C469.335,175.449,464.554,170.667,458.668,170.667z" fill="#000000" data-original="#000000"/>
<path xmlns="http://www.w3.org/2000/svg" style="" d="M480.002,405.334v-0.311c-0.089,0.01-7.507,0.018-18.667,0.025v0.286  c4.414,0,8,4.781,8,10.667c0,5.885-3.586,10.667-8,10.667h18.667c5.885,0,10.667-4.781,10.667-10.667  C490.668,410.115,485.887,405.334,480.002,405.334z" fill="#000000" data-original="#000000"/>
<path xmlns="http://www.w3.org/2000/svg" style="" d="M325.564,264.324l4.25-50.99h108.375l4.25,50.99c3.376,40.561,11.339,80.703,23.229,119.677H388.63  l-65.978-93.142C323.8,282.035,324.824,273.196,325.564,264.324z" fill="#9e5f2c" data-original="#9e5f2c"/>
<path xmlns="http://www.w3.org/2000/svg" style="opacity:0.2;fill:#FFFFFF;enable-background:new    ;" d="M342.512,264.324l3.199-50.99h-15.897l-4.25,50.99  c-0.74,8.872-1.764,17.711-2.911,26.535l18.836,26.592C342.156,305.718,341.994,272.576,342.512,264.324z" fill=""/>
<path xmlns="http://www.w3.org/2000/svg" style="" d="M442.439,264.324l-4.25-50.99h-10.878l3.201,50.99  c2.542,40.561,8.536,80.703,17.49,119.677h17.667C453.778,345.027,445.815,304.885,442.439,264.324z" fill="#000000" data-original="#000000"/>
<path xmlns="http://www.w3.org/2000/svg" style="" d="M31.908,426.667l107.927-144.958c4.75-5.563,14.698-5,18.552-0.563l19.393,26.035L93.146,426.667  H31.908z" fill="#b41414" data-original="#69b342" class=""/>
<path xmlns="http://www.w3.org/2000/svg" style="opacity:0.2;fill:#FFFFFF;enable-background:new    ;" d="M158.387,312.066l9.111,9.633l10.283-14.517l-19.393-26.035  c-3.854-4.438-13.802-5-18.552,0.563L31.908,426.667l107.927-114.159C144.585,308.128,154.533,308.571,158.387,312.066z" fill=""/>
<path xmlns="http://www.w3.org/2000/svg" style="" d="M73.252,490.667l157.073-221.76c11.479-16.167,38.469-16.167,49.927,0l157.083,221.76H73.252z" fill="#f9c20a" data-original="#f9c20a" class=""/>
<path xmlns="http://www.w3.org/2000/svg" style="opacity:0.2;fill:#FFFFFF;enable-background:new    ;" d="M280.96,298.507l151.776,185.668L280.252,268.907  c-11.458-16.167-38.448-16.167-49.927,0L73.252,490.667h0.708l157.073-192.16C242.512,284.498,269.502,284.498,280.96,298.507z" fill=""/>
<path xmlns="http://www.w3.org/2000/svg" style="" d="M463.344,489.475l-29.379-41.474h35.37v32C469.335,484.187,466.858,487.729,463.344,489.475z" fill="#9e5f2c" data-original="#9e5f2c"/>
<g xmlns="http://www.w3.org/2000/svg">
	<path style="" d="M234.668,298.667c-11.76,0-21.333,9.573-21.333,21.333c0,5.896,4.771,10.667,10.667,10.667   c5.896,0,10.667-4.771,10.667-10.667c5.896,0,10.667-4.771,10.667-10.667C245.335,303.438,240.564,298.667,234.668,298.667z" fill="#303c42" data-original="#303c42"/>
	<path style="" d="M256.002,341.334c0,5.896,4.771,10.667,10.667,10.667s10.667-4.771,10.667-10.667   c5.896,0,10.667-4.771,10.667-10.667s-4.771-10.667-10.667-10.667C265.574,320.001,256.002,329.574,256.002,341.334z" fill="#303c42" data-original="#303c42"/>
	<path style="" d="M202.668,352.001c-11.76,0-21.333,9.573-21.333,21.333c0,5.896,4.771,10.667,10.667,10.667   c5.896,0,10.667-4.771,10.667-10.667c5.896,0,10.667-4.771,10.667-10.667C213.335,356.772,208.564,352.001,202.668,352.001z" fill="#303c42" data-original="#303c42"/>
</g>
<linearGradient xmlns="http://www.w3.org/2000/svg" id="SVGID_1_" gradientUnits="userSpaceOnUse" x1="-41.75" y1="635.5939" x2="-21.9221" y2="626.348" gradientTransform="matrix(21.3333 0 0 -21.3333 998.4835 13763.0957)">
	<stop offset="0" style="stop-color:#FFFFFF;stop-opacity:0.2"/>
	<stop offset="1" style="stop-color:#FFFFFF;stop-opacity:0"/>
</linearGradient>
<path xmlns="http://www.w3.org/2000/svg" style="fill:url(#SVGID_1_);" d="M512.002,416.001c0-14.759-10.095-27.094-23.706-30.773  c-12.76-39.831-21.137-81.036-24.607-122.674l-4.108-49.311c17.216-0.496,31.087-14.574,31.087-31.908  c0-12.522-7.298-23.275-17.802-28.529c4.698-11.417,7.135-23.288,7.135-35.471c0-45.763-32.236-84.01-75.158-93.574  c0.099-0.833,0.491-1.566,0.491-2.426c0-11.76-9.573-21.333-21.333-21.333s-21.333,9.573-21.333,21.333  c0,0.859,0.392,1.592,0.491,2.426c-42.922,9.564-75.158,47.811-75.158,93.574c0,12.195,2.436,24.068,7.132,35.474  c-10.503,5.254-17.798,16.005-17.798,28.526c0,17.333,13.872,31.411,31.087,31.908l-4.108,49.301c-0.06,0.703-0.171,1.397-0.232,2.1  l-5.716-8.069c-9.719-13.719-25.563-21.906-42.365-21.906s-32.646,8.188-42.375,21.906l-22.885,32.31l-15.698-21.049  c-12.875-15.042-38.094-15.604-51.865,0.563L2.116,430.959c-2.417,3.24-2.792,7.552-0.979,11.156c1.812,3.615,5.5,5.885,9.531,5.885  h67.367l-33.409,47.167c-2.302,3.26-2.594,7.521-0.771,11.063c1.833,3.542,5.49,5.771,9.479,5.771h405.333c17.646,0,32-14.354,32-32  v-33.965C503.058,441.618,512.002,429.889,512.002,416.001z" fill=""/>
<g xmlns="http://www.w3.org/2000/svg">
</g>
<g xmlns="http://www.w3.org/2000/svg">
</g>
<g xmlns="http://www.w3.org/2000/svg">
</g>
<g xmlns="http://www.w3.org/2000/svg">
</g>
<g xmlns="http://www.w3.org/2000/svg">
</g>
<g xmlns="http://www.w3.org/2000/svg">
</g>
<g xmlns="http://www.w3.org/2000/svg">
</g>
<g xmlns="http://www.w3.org/2000/svg">
</g>
<g xmlns="http://www.w3.org/2000/svg">
</g>
<g xmlns="http://www.w3.org/2000/svg">
</g>
<g xmlns="http://www.w3.org/2000/svg">
</g>
<g xmlns="http://www.w3.org/2000/svg">
</g>
<g xmlns="http://www.w3.org/2000/svg">
</g>
<g xmlns="http://www.w3.org/2000/svg">
</g>
<g xmlns="http://www.w3.org/2000/svg">
</g>
</g></svg>
