<svg xmlns="http://www.w3.org/2000/svg" viewBox="0 0 512 512">
  <defs />
  <path xmlns="http://www.w3.org/2000/svg" fill="#00382a"
    d="M465.083 290.73l-2.262-40.344-24.629 32.033c-1.961 2.55-6.136 7.061-11.466 11.172a159.62 159.62 0 005.229-23.714c4.302-30.398 1.623-77.053-35.556-126.693l-15.6-20.828-10.222 23.931c-11.791 27.604-30.869 41.453-48.6 35.28-13.65-4.75-24.745-20.372-30.437-42.863-5.309-20.978-8.395-57.893 7.065-114.629L305.165 0l-24.343 5.484c-82.115 18.498-137.448 76.812-160.02 168.636-9.488 38.599-11.275 75.168-11.009 99.902-19.402-15.686-29.091-29.449-29.345-29.813l-18.481-27.152-8.418 31.792a209.991 209.991 0 00-6.972 53.729c0 114.613 92.55 207.999 206.839 209.39a100.903 100.903 0 005.168 0c114.29-1.391 206.839-94.777 206.839-209.39 0-3.835-.114-7.822-.34-11.848zM256.001 481.975c-38.736 0-70.249-31.513-70.249-70.248 0-67.598 31.967-97.88 56.885-111.217-3.175 17.162-.36 33.424 4.929 45.532 7.883 18.045 21.949 29.865 37.628 31.617 6.159.686 16.468.155 27.274-7.708 8.867 12.001 13.781 26.641 13.781 41.776 0 38.736-31.514 70.248-70.248 70.248zm88.69-23.509c7.389-13.965 11.583-29.871 11.583-46.739 0-28.427-12.139-55.63-33.303-74.632l-12.312-11.053-9.808 13.325c-2.497 3.393-7.423 9.011-12.32 8.454-3.884-.434-9.549-4.869-13.449-13.798-5.393-12.343-6.487-31.857 6.609-49.603l20.782-28.163-34.728 4.352c-1.171.147-28.996 3.832-56.587 24.569-45.811 34.43-55.428 87.821-55.428 126.549 0 16.872 4.195 32.781 11.588 46.748-54.138-30.919-90.712-89.215-90.712-155.898 0-5.688.268-11.363.8-17.004 10.125 9.593 23.851 20.766 41.326 31.134l26.087 15.467-3.517-30.129c-.068-.585-6.644-59.18 8.849-121.52C167.866 109.236 205.96 62.659 263.555 41.73c-8.032 39.662-8.456 75.356-1.119 104.342 8.214 32.452 26.321 55.726 49.678 63.852 16.237 5.649 33.735 3.549 49.278-5.912 8.947-5.446 17.041-13.197 23.999-22.901 15.031 26.841 20.75 54.76 17.015 83.256-3.533 26.955-14.627 44.565-14.702 44.683l-12.843 19.703 23.279 3.354c11.72 1.688 23.959-.889 35.913-7.487-7.06 57.34-41.287 106.386-89.362 133.846z"
    data-original="#000000" />
</svg>
