<?xml version="1.0"?>
<svg xmlns="http://www.w3.org/2000/svg" xmlns:xlink="http://www.w3.org/1999/xlink" xmlns:svgjs="http://svgjs.com/svgjs" version="1.1" width="512" height="512" x="0" y="0" viewBox="0 0 512 512" style="enable-background:new 0 0 512 512" xml:space="preserve" class=""><g>
<g xmlns="http://www.w3.org/2000/svg">
	<g>
		<path d="M465.083,290.73l-2.262-40.344l-24.629,32.033c-1.961,2.55-6.136,7.061-11.466,11.172    c2.106-6.978,3.986-14.936,5.229-23.714c4.302-30.398,1.623-77.053-35.556-126.693l-15.6-20.828l-10.222,23.931    c-11.791,27.604-30.869,41.453-48.6,35.28c-13.65-4.75-24.745-20.372-30.437-42.863c-5.309-20.978-8.395-57.893,7.065-114.629    L305.165,0l-24.343,5.484c-82.115,18.498-137.448,76.812-160.02,168.636c-9.488,38.599-11.275,75.168-11.009,99.902    c-19.402-15.686-29.091-29.449-29.345-29.813l-18.481-27.152l-8.418,31.792c-4.627,17.474-6.972,35.551-6.972,53.729    c0,114.613,92.55,207.999,206.839,209.39c0.859,0.022,1.72,0.033,2.584,0.033c0.864,0,1.725-0.011,2.584-0.033    c114.29-1.391,206.839-94.777,206.839-209.39C465.423,298.743,465.309,294.756,465.083,290.73z M256.001,481.975    c-38.736,0-70.249-31.513-70.249-70.248c0-67.598,31.967-97.88,56.885-111.217c-3.175,17.162-0.36,33.424,4.929,45.532    c7.883,18.045,21.949,29.865,37.628,31.617c6.159,0.686,16.468,0.155,27.274-7.708c8.867,12.001,13.781,26.641,13.781,41.776    C326.249,450.463,294.735,481.975,256.001,481.975z M344.691,458.466c7.389-13.965,11.583-29.871,11.583-46.739    c0-28.427-12.139-55.63-33.303-74.632l-12.312-11.053l-9.808,13.325c-2.497,3.393-7.423,9.011-12.32,8.454    c-3.884-0.434-9.549-4.869-13.449-13.798c-5.393-12.343-6.487-31.857,6.609-49.603l20.782-28.163l-34.728,4.352    c-1.171,0.147-28.996,3.832-56.587,24.569c-45.811,34.43-55.428,87.821-55.428,126.549c0,16.872,4.195,32.781,11.588,46.748    c-54.138-30.919-90.712-89.215-90.712-155.898c0-5.688,0.268-11.363,0.8-17.004c10.125,9.593,23.851,20.766,41.326,31.134    l26.087,15.467l-3.517-30.129c-0.068-0.585-6.644-59.18,8.849-121.52C167.866,109.236,205.96,62.659,263.555,41.73    c-8.032,39.662-8.456,75.356-1.119,104.342c8.214,32.452,26.321,55.726,49.678,63.852c16.237,5.649,33.735,3.549,49.278-5.912    c8.947-5.446,17.041-13.197,23.999-22.901c15.031,26.841,20.75,54.76,17.015,83.256c-3.533,26.955-14.627,44.565-14.702,44.683    l-12.843,19.703l23.279,3.354c11.72,1.688,23.959-0.889,35.913-7.487C426.993,381.96,392.766,431.006,344.691,458.466z" fill="#00382a" data-original="#000000" style="" class=""/>
	</g>
</g>
<g xmlns="http://www.w3.org/2000/svg">
</g>
<g xmlns="http://www.w3.org/2000/svg">
</g>
<g xmlns="http://www.w3.org/2000/svg">
</g>
<g xmlns="http://www.w3.org/2000/svg">
</g>
<g xmlns="http://www.w3.org/2000/svg">
</g>
<g xmlns="http://www.w3.org/2000/svg">
</g>
<g xmlns="http://www.w3.org/2000/svg">
</g>
<g xmlns="http://www.w3.org/2000/svg">
</g>
<g xmlns="http://www.w3.org/2000/svg">
</g>
<g xmlns="http://www.w3.org/2000/svg">
</g>
<g xmlns="http://www.w3.org/2000/svg">
</g>
<g xmlns="http://www.w3.org/2000/svg">
</g>
<g xmlns="http://www.w3.org/2000/svg">
</g>
<g xmlns="http://www.w3.org/2000/svg">
</g>
<g xmlns="http://www.w3.org/2000/svg">
</g>
</g></svg>
