<svg id="Filled" height="512" viewBox="0 0 512 512" width="512" xmlns="http://www.w3.org/2000/svg"><path d="m328 432s16 24 16 48h-320c0-24 16-48 16-48s-2.11-9.56-4.81-26.33a914.055 914.055 0 0 1 -11.19-141.67c0-95.65 32-200 32-200h256s32 104.35 32 200a914.055 914.055 0 0 1 -11.19 141.67c-2.7 16.77-4.81 26.33-4.81 26.33z" fill="#c48669"/><path d="m352 480h-328c0-24 16-48 16-48s-2.11-9.56-4.81-26.33c28.11-50.94 84.2-85.67 148.81-85.67s120.7 34.73 148.81 85.67a153.225 153.225 0 0 1 19.19 74.33z" fill="#f0dfce"/><path d="m32 32h304v48h-304z" fill="#a36f58"/><path d="m272 160h-176l8-16-8-16h176l-8 16z" fill="#a36f58"/><g fill="#ea9f26"><path d="m136 208h16a32 32 0 0 1 32 32v32a0 0 0 0 1 0 0 48 48 0 0 1 -48-48v-16a0 0 0 0 1 0 0z" transform="matrix(-1 0 0 -1 320 480)"/><path d="m232 208a0 0 0 0 1 0 0v32a32 32 0 0 1 -32 32h-16a0 0 0 0 1 0 0v-16a48 48 0 0 1 48-48z"/><path d="m136 384h16a32 32 0 0 1 32 32v32a0 0 0 0 1 0 0 48 48 0 0 1 -48-48v-16a0 0 0 0 1 0 0z" transform="matrix(-1 0 0 -1 320 832)"/><path d="m232 384a0 0 0 0 1 0 0v32a32 32 0 0 1 -32 32h-16a0 0 0 0 1 0 0v-16a48 48 0 0 1 48-48z"/><path d="m136 296h16a32 32 0 0 1 32 32v32a0 0 0 0 1 0 0 48 48 0 0 1 -48-48v-16a0 0 0 0 1 0 0z" transform="matrix(-1 0 0 -1 320 656)"/><path d="m232 296a0 0 0 0 1 0 0v32a32 32 0 0 1 -32 32h-16a0 0 0 0 1 0 0v-16a48 48 0 0 1 48-48z"/><circle cx="184" cy="144" r="32"/></g><path d="m488 240v240h-224v-232l4.57-8 27.43-48h160l8 32z" fill="#ffb632"/><path d="m488 240v240h-64v-232l32-56 8 32z" fill="#f7b030"/><path d="m424 416s-32-40-80-40-80 40-80 40v64h160z" fill="#fbe9d8"/><ellipse cx="344" cy="320" fill="#ea9f26" rx="32" ry="24"/><path d="m278.805 123.794a8 8 0 0 0 -6.805-3.794h-56.022a39.956 39.956 0 0 0 -63.956 0h-56.022a8 8 0 0 0 -7.155 11.578l6.211 12.422-6.211 12.422a8 8 0 0 0 7.155 11.578h56.022a39.956 39.956 0 0 0 63.956 0h56.022a8 8 0 0 0 7.155-11.578l-6.211-12.422 6.211-12.422a8 8 0 0 0 -.35-7.784zm-134 28.206h-35.861l2.211-4.422a8 8 0 0 0 0-7.156l-2.211-4.422h35.861a40.154 40.154 0 0 0 0 16zm39.195 16a24 24 0 1 1 24-24 24.028 24.028 0 0 1 -24 24zm72.845-20.422 2.211 4.422h-35.856a40.154 40.154 0 0 0 0-16h35.861l-2.211 4.422a8 8 0 0 0 -.005 7.156z"/><path d="m492.438 233.344-21.427-14.284-7.25-29c-.007-.031-.018-.059-.026-.089-.024-.09-.052-.179-.079-.268-.044-.145-.089-.289-.14-.431-.033-.09-.069-.179-.105-.268-.055-.137-.113-.272-.175-.4-.042-.09-.085-.178-.131-.267-.066-.127-.135-.251-.207-.374-.052-.088-.1-.176-.157-.262-.077-.121-.16-.237-.243-.353-.058-.082-.114-.165-.176-.245-.134-.173-.274-.34-.422-.5-.071-.078-.149-.152-.224-.227-.1-.1-.2-.207-.313-.305-.078-.07-.16-.137-.241-.2q-.168-.141-.342-.272c-.079-.059-.159-.116-.24-.172q-.21-.144-.428-.274c-.049-.029-.093-.063-.143-.091-.02-.012-.04-.02-.06-.031-.216-.121-.437-.235-.665-.336-.021-.01-.042-.016-.063-.025-.2-.088-.409-.167-.619-.238-.093-.032-.187-.058-.28-.086-.138-.041-.276-.08-.416-.113-.11-.027-.221-.05-.332-.071s-.25-.046-.377-.064-.236-.034-.354-.046-.245-.019-.369-.025-.239-.015-.359-.016c-.025 0-.05 0-.075 0h-110.059a902.894 902.894 0 0 0 -19.061-96.011h9.12a8 8 0 0 0 8-8v-48a8 8 0 0 0 -8-8h-304a8 8 0 0 0 -8 8v48a8 8 0 0 0 8 8h9.12c-9.203 36.119-25.12 108.381-25.12 176 0 84.136 12.459 151.284 15.518 166.494-4.474 7.514-15.518 28.222-15.518 49.506a8 8 0 0 0 8 8h464a8 8 0 0 0 8-8v-240a8 8 0 0 0 -3.562-6.656zm-452.438-161.344v-32h288v32zm136 368h-8a24.028 24.028 0 0 1 -24-24v-23.2a40.071 40.071 0 0 1 32 39.2zm0-47.138a55.82 55.82 0 0 0 -40-16.862 8 8 0 0 0 -8 8v32a40.045 40.045 0 0 0 40 40h8v16h-143.369c2.792-18.433 13.9-35.376 14.025-35.562a8.007 8.007 0 0 0 1.156-6.165c-.054-.241-1.869-8.594-4.252-23.134 18.64-32.339 49.24-57.321 85.521-69.939a40.062 40.062 0 0 0 38.919 30.8h8zm0-40.862h-8a24.028 24.028 0 0 1 -24-24v-23.2a40.071 40.071 0 0 1 32 39.2zm0-88h-8a24.028 24.028 0 0 1 -24-24v-23.2a40.071 40.071 0 0 1 32 39.2zm80 208h-64v-16h8a40.045 40.045 0 0 0 40-40v-32a8 8 0 0 0 -8-8 55.82 55.82 0 0 0 -40 16.862v-24.862h8a40.061 40.061 0 0 0 38.919-30.8 163.946 163.946 0 0 1 17.081 7.032zm-64-32v-8a40.071 40.071 0 0 1 32-39.2v23.2a24.028 24.028 0 0 1 -24 24zm0-88v-8a40.071 40.071 0 0 1 32-39.2v23.2a24.028 24.028 0 0 1 -24 24zm64-104v78.665q-7.844-3.359-16-5.967v-24.698a8 8 0 0 0 -8-8 55.82 55.82 0 0 0 -40 16.862v-24.862h8a40.045 40.045 0 0 0 40-40v-32a8 8 0 0 0 -8-8 56.021 56.021 0 0 0 -48 27.19 56.021 56.021 0 0 0 -48-27.19 8 8 0 0 0 -8 8v32a40.045 40.045 0 0 0 40 40h8v24.862a55.82 55.82 0 0 0 -40-16.862 8 8 0 0 0 -8 8v24.7a176.439 176.439 0 0 0 -87.965 62.67 912.433 912.433 0 0 1 -8.035-119.37c0-68.447 16.835-142.143 25.642-176h252.717a891.184 891.184 0 0 1 19.426 96h-33.785a8 8 0 0 0 -6.946 4.031l-32 56a7.992 7.992 0 0 0 -1.054 3.969zm-64 16v-8a40.071 40.071 0 0 1 32-39.2v23.2a24.028 24.028 0 0 1 -24 24zm224 208h-144v-53c7-7.7 34.5-35 72-35s65 27.3 72 35zm-24-216h24v140.749c-14.667-12.53-39.858-28.749-72-28.749s-57.333 16.22-72 28.75v-140.75h88a8 8 0 0 0 0-16h-82.214l22.857-40h141.572l-22.857 40h-27.358a8 8 0 0 0 0 16zm88 216h-16v-168a8 8 0 0 0 -16 0v168h-16v-216h16a8 8 0 0 0 0-16h-10.215l15.283-26.745 3.171 12.685a8 8 0 0 0 3.323 4.716l20.438 13.625z"/><path d="m344 288c-22.056 0-40 14.355-40 32s17.944 32 40 32 40-14.355 40-32-17.944-32-40-32zm0 48c-13.009 0-24-7.327-24-16s10.991-16 24-16 24 7.327 24 16-10.991 16-24 16z"/></svg>