<svg height="512pt" viewBox="0 -22 512 512" width="512pt" xmlns="http://www.w3.org/2000/svg"><path d="m100.648438 68.816406v-45.679687c0-8.636719 7-15.640625 15.636718-15.640625h160.316406c8.636719 0 15.636719 7.003906 15.636719 15.640625v45.679687l48.023438 56.835938v307.40625c0 14.980468-12.144531 27.128906-27.128907 27.128906h-233.378906c-14.984375 0-27.128906-12.148438-27.128906-27.128906v-307.40625zm0 0" fill="#e9e9ea"/><path d="m292.238281 68.816406v-45.679687c0-8.636719-7-15.636719-15.636719-15.636719h-28.050781c8.636719 0 15.636719 7 15.636719 15.636719v45.679687l48.023438 56.835938v307.40625c0 14.980468-12.148438 27.128906-27.128907 27.128906h28.050781c14.980469 0 27.128907-12.148438 27.128907-27.128906v-307.40625zm0 0" fill="#c5c4cc"/><path d="m313.132812 460.183594h-233.378906c-14.984375 0-27.128906-12.144532-27.128906-27.128906v-307.402344h287.636719v307.40625c0 14.980468-12.144531 27.125-27.128907 27.125zm0 0" fill="#8cbafa"/><path d="m340.261719 125.652344h-28.050781v307.40625c0 14.980468-12.148438 27.128906-27.128907 27.128906h28.050781c14.980469 0 27.128907-12.148438 27.128907-27.128906zm0 0" fill="#5692d8"/><path d="m276.601562 7.5h-160.316406c-8.636718 0-15.636718 7-15.636718 15.636719v45.679687h191.589843v-45.679687c0-8.636719-7-15.636719-15.636719-15.636719zm0 0" fill="#8cbafa"/><path d="m292.238281 68.816406v-45.679687c0-8.636719-7-15.640625-15.636719-15.640625h-28.050781c8.636719.003906 15.636719 7.003906 15.636719 15.636718v45.683594zm0 0" fill="#5692d8"/><path d="m361.828125 376.894531c0-29.410156-19.59375-53.253906-43.765625-53.253906-24.167969 0-43.761719 23.84375-43.761719 53.253906 0 29.414063 19.59375 53.253907 43.761719 53.253907 24.171875 0 43.765625-23.839844 43.765625-53.253907zm0 0" fill="#ffd2c0"/><path d="m470.492188 376.894531c0-29.410156-19.59375-53.253906-43.761719-53.253906-24.171875 0-43.765625 23.84375-43.765625 53.253906 0 29.414063 19.59375 53.253907 43.765625 53.253907 24.167969 0 43.761719-23.839844 43.761719-53.253907zm0 0" fill="#ffd2c0"/><path d="m426.730469 323.640625c-2.367188 0-4.691407.234375-6.953125.675781 15.144531 4.054688 26.714844 26.046875 26.714844 52.578125s-11.570313 48.523438-26.714844 52.578125c2.261718.4375 4.585937.675782 6.953125.675782 24.167969 0 43.761719-23.84375 43.761719-53.253907 0-29.410156-19.59375-53.253906-43.761719-53.253906zm0 0" fill="#edaa9d"/><path d="m318.0625 323.640625c-2.367188 0-4.6875.234375-6.953125.675781 15.144531 4.054688 26.71875 26.046875 26.71875 52.578125s-11.574219 48.523438-26.71875 52.578125c2.265625.4375 4.585937.675782 6.953125.675782 24.171875 0 43.765625-23.84375 43.765625-53.253907 0-29.410156-19.59375-53.253906-43.765625-53.253906zm0 0" fill="#edaa9d"/><path d="m378.308594 382.339844h-120.488282l20.164063 72.460937c.882813 3.183594 3.785156 5.386719 7.089844 5.386719h65.980469c3.304687 0 6.203124-2.203125 7.089843-5.386719l8.78125-31.558593c.324219-1.167969 1.390625-1.980469 2.605469-1.980469h5.726562c1.214844 0 2.28125.8125 2.609376 1.980469l8.78125 31.558593c.882812 3.183594 3.785156 5.386719 7.089843 5.386719h65.980469c3.304688 0 6.203125-2.203125 7.089844-5.386719l20.164062-72.460937zm0 0" fill="#f9aa4b"/><path d="m461.972656 382.339844-20.164062 72.457031c-.886719 3.183594-3.785156 5.386719-7.089844 5.386719h25c3.304688 0 6.203125-2.203125 7.089844-5.386719l20.164062-72.457031zm0 0" fill="#c1762b"/><path d="m189.507812 408.664062c0-11.929687 9.121094-21.726562 20.769532-22.800781 1.203125-.109375 2.125-1.101562 2.125-2.308593v-24.226563c0-1.152344-.824219-2.175781-1.96875-2.332031-7.085938-.960938-12.546875-7.035156-12.546875-14.382813 0-7.351562 5.460937-13.425781 12.546875-14.386719 1.144531-.152343 1.96875-1.175781 1.96875-2.332031v-11.53125c0-5.242187-4.246094-9.488281-9.484375-9.488281h-167.351563c-15.5 0-28.066406 12.566406-28.066406 28.066406v99.175782c0 15.5 12.566406 28.066406 28.066406 28.066406h167.351563c5.238281 0 9.488281-4.246094 9.488281-9.484375v-16.929688c0-1.207031-.925781-2.195312-2.128906-2.304687-11.648438-1.074219-20.769532-10.871094-20.769532-22.800782zm0 0" fill="#ffeb96"/><path d="m40.066406 432.121094v-99.179688c0-15.5 12.566406-28.066406 28.066406-28.066406h-32.566406c-15.5 0-28.066406 12.566406-28.066406 28.066406v99.179688c0 15.5 12.566406 28.066406 28.066406 28.066406h32.566406c-15.5-.003906-28.066406-12.566406-28.066406-28.066406zm0 0" fill="#f9aa4b"/><path d="m98.773438 343.476562c0 7.117188-5.769532 12.886719-12.886719 12.886719-7.117188 0-12.890625-5.769531-12.890625-12.886719 0-7.121093 5.773437-12.890624 12.890625-12.890624 7.117187 0 12.886719 5.769531 12.886719 12.890624zm0 0" fill="#ffcd34"/><path d="m157.871094 406.925781c0 11.695313-9.480469 21.171875-21.171875 21.171875-11.691407 0-21.171875-9.476562-21.171875-21.171875 0-11.691406 9.480468-21.167969 21.171875-21.167969 11.691406 0 21.171875 9.476563 21.171875 21.167969zm0 0" fill="#ffcd34"/><path d="m124.199219 237.40625c48.207031-1.066406 96.414062 50.058594 144.625 48.699219 3.234375-.089844 5.796875-2.769531 5.796875-6.003907v-52.566406c0-3.390625-2.808594-6.066406-6.203125-5.988281-48.207031 1.066406-96.414063-50.058594-144.625-48.699219-3.234375.089844-5.796875 2.769532-5.796875 6.003906v52.5625c0 3.394532 2.808594 6.070313 6.203125 5.992188zm0 0" fill="#e9e9ea"/><path d="m504.5 374.835938h-26.539062c-.917969-32.550782-23.546876-58.695313-51.230469-58.695313-27.691407 0-50.324219 26.144531-51.242188 58.695313h-6.1875c-.550781-19.546876-8.933593-36.785157-21.539062-47.4375v-201.59375c0-.050782 0-.101563 0-.15625 0-1.894532-.703125-3.628907-1.867188-4.949219l-46.15625-54.625v-42.945313c0-12.753906-10.378906-23.128906-23.140625-23.128906h-160.308594c-12.757812 0-23.140624 10.375-23.140624 23.128906v42.945313l-46.257813 54.734375c-1.144531 1.355468-1.769531 3.070312-1.769531 4.839844v35.441406c0 4.140625 3.355468 7.5 7.5 7.5 4.140625 0 7.5-3.359375 7.5-7.5v-27.941406h272.640625v185.535156c-4.660157-1.65625-9.59375-2.542969-14.703125-2.542969-27.683594 0-50.3125 26.144531-51.230469 58.695313h-26.535156c-4.144531 0-7.5 3.355468-7.5 7.5 0 4.144531 3.355469 7.5 7.5 7.5h11.828125l17.488281 62.84375h-49.820313c.074219-.652344.113282-1.3125.113282-1.984376v-16.925781c0-5.105469-3.84375-9.308593-8.9375-9.777343-7.957032-.730469-13.957032-7.324219-13.957032-15.332032 0-8.007812 6-14.597656 13.960938-15.332031 5.09375-.46875 8.9375-4.671875 8.9375-9.773437v-24.226563c0-4.914063-3.640625-9.109375-8.464844-9.765625-3.449218-.46875-6.054687-3.457031-6.054687-6.953125s2.605469-6.484375 6.058593-6.953125c4.820313-.652344 8.460938-4.851562 8.460938-9.765625v-11.53125c0-9.367187-7.621094-16.988281-16.988281-16.988281h-142.796875v-106.28125c0-4.144532-3.359375-7.5-7.5-7.5-4.144532 0-7.5 3.355468-7.5 7.5v106.28125h-9.554688c-1.535156 0-3.042968.097656-4.523437.289062-17.484375 2.226563-31.042969 17.199219-31.042969 35.277344v99.179688c0 18.082031 13.558594 33.050781 31.042969 35.28125 1.480469.1875 2.988281.285156 4.523437.285156h167.351563c.117187 0 .234375 0 .351562-.003906h81.472657c.113281.003906.222656.003906.332031.003906h65.980469c6.644531 0 12.53125-4.472656 14.316406-10.875l7.023437-25.25 7.027344 25.25c1.785156 6.402344 7.671875 10.875 14.316406 10.875h65.980469c6.644531 0 12.535156-4.472656 14.316406-10.875l18.636719-66.972656h11.828125c4.144531 0 7.5-3.355469 7.5-7.5 0-4.140626-3.355469-7.5-7.5-7.5zm-180.394531-256.683594h-255.328125l35.359375-41.835938h184.617187zm-207.816407-103.152344h160.3125c4.488282 0 8.140626 3.648438 8.140626 8.128906v38.1875h-176.59375v-38.1875c0-4.480468 3.652343-8.128906 8.140624-8.128906zm310.441407 316.140625c19.449219 0 35.367187 19.417969 36.222656 43.695313h-72.457031c.855468-24.277344 16.78125-43.695313 36.234375-43.695313zm-108.671875 0c6.3125 0 12.253906 2.042969 17.425781 5.632813.269531.222656.546875.421874.84375.605468 10.320313 7.621094 17.402344 21.488282 17.964844 37.457032h-72.457031c.855468-24.277344 16.773437-43.695313 36.222656-43.695313zm-282.492188 121.542969c-11.339844 0-20.566406-9.226563-20.566406-20.566406v-99.179688c0-11.339844 9.226562-20.5625 20.566406-20.5625h3.5625c-4.132812 5.808594-6.5625 12.90625-6.5625 20.5625v17.65625c0 4.140625 3.359375 7.5 7.5 7.5 4.144532 0 7.5-3.359375 7.5-7.5v-17.65625c0-11.339844 9.226563-20.5625 20.566406-20.5625h134.785157c1.09375 0 1.984375.890625 1.984375 1.984375v7.550781c-8.523438 3.101563-14.515625 11.320313-14.515625 20.699219 0 9.382813 5.988281 17.601563 14.515625 20.703125v15.878906c-13.335938 3.335938-22.894532 15.277344-22.894532 29.46875 0 14.195313 9.558594 26.136719 22.894532 29.476563v12.5625c0 1.054687-.824219 1.917969-1.867188 1.980469h-.117187c-.078125 0-.15625 0-.230469.003906h-134.554688c-11.339843 0-20.566406-9.226563-20.566406-20.566406v-51.523438c0-4.144531-3.355468-7.5-7.5-7.5-4.140625 0-7.5 3.355469-7.5 7.5v51.523438c0 7.660156 2.433594 14.757812 6.566406 20.566406zm424.046875 0h-65.769531l-8.75-31.449219c-1.222656-4.398437-5.269531-7.472656-9.835938-7.472656h-5.726562c-4.566406 0-8.609375 3.070312-9.832031 7.46875l-8.753907 31.453125h-37.585937c-.074219 0-.152344-.003906-.230469-.003906h-27.949218l-17.488282-62.84375h6.628906c.132813.003906.273438.003906.410157 0h86.679687c.066406.003906.132813.003906.199219.003906s.132813 0 .203125-.003906h21.167969c.132812.003906.273437.003906.410156 0h86.679687c.066407.003906.132813.003906.199219.003906.066407 0 .132813 0 .203125-.003906h6.628906zm0 0"/><path d="m85.886719 363.863281c11.242187 0 20.390625-9.144531 20.390625-20.390625 0-11.242187-9.148438-20.386718-20.390625-20.386718-11.242188 0-20.390625 9.144531-20.390625 20.386718 0 11.242188 9.148437 20.390625 20.390625 20.390625zm0-25.777343c2.972656 0 5.390625 2.417968 5.390625 5.386718 0 2.972656-2.417969 5.390625-5.390625 5.390625-2.972657 0-5.390625-2.417969-5.390625-5.390625 0-2.96875 2.417968-5.386718 5.390625-5.386718zm0 0"/><path d="m136.699219 435.597656c15.8125 0 28.671875-12.863281 28.671875-28.671875 0-15.808593-12.859375-28.671875-28.671875-28.671875-15.808594 0-28.671875 12.863282-28.671875 28.671875 0 15.808594 12.863281 28.671875 28.671875 28.671875zm0-42.34375c7.539062 0 13.671875 6.132813 13.671875 13.671875 0 7.539063-6.132813 13.671875-13.671875 13.671875-7.539063 0-13.671875-6.132812-13.671875-13.671875 0-7.539062 6.132812-13.671875 13.671875-13.671875zm0 0"/><path d="m124.363281 244.90625c22.144531-.484375 44.648438 11.167969 68.496094 23.515625 23.953125 12.398437 48.699219 25.210937 74.078125 25.210937.699219 0 1.398438-.011718 2.097656-.03125 7.335938-.207031 13.085938-6.136718 13.085938-13.5v-52.566406c0-3.648437-1.4375-7.066406-4.046875-9.621094-2.632813-2.574218-6.105469-3.988281-9.820313-3.867187-22.117187.472656-44.648437-11.171875-68.496094-23.515625-24.613281-12.742188-50.078124-25.925781-76.175781-25.179688-7.339843.207032-13.085937 6.136719-13.085937 13.5v52.5625c0 3.652344 1.4375 7.070313 4.046875 9.625 2.636719 2.574219 6.105469 3.941407 9.820312 3.867188zm1.132813-64.585938h.222656c21.683594 0 43.785156 11.4375 67.140625 23.53125 23.953125 12.398438 48.699219 25.210938 74.074219 25.210938h.1875v49.566406c-.074219.003906-.148438.003906-.222656.003906-21.683594 0-43.78125-11.441406-67.140626-23.53125-23.953124-12.402343-48.699218-25.210937-74.074218-25.210937h-.1875zm0 0"/></svg>