<?xml version="1.0"?>
<svg xmlns="http://www.w3.org/2000/svg" xmlns:xlink="http://www.w3.org/1999/xlink" xmlns:svgjs="http://svgjs.com/svgjs" version="1.1" width="512" height="512" x="0" y="0" viewBox="0 0 385.072 385.072" style="enable-background:new 0 0 512 512" xml:space="preserve" class=""><g>
<g xmlns="http://www.w3.org/2000/svg">
	<g>
		<g>
			<path d="M288.824,99.842c-0.001-0.001-0.003-0.001-0.004-0.002c-59.388-34.366-133.172-34.368-192.561-0.003     c-0.003,0.002-0.007,0.003-0.01,0.005C38.527,133.231,0,195.607,0,266.603c0,4.143,3.358,7.5,7.5,7.5h141.278     c3.576,20.924,21.831,36.904,43.758,36.904c22.02,0,39.793-15.259,43.698-36.904h141.338c4.142,0,7.5-3.357,7.5-7.5     C385.073,195.579,346.522,133.217,288.824,99.842z M148.776,259.103H15.158c2.515-59.71,34.459-112.003,82.184-142.38     l66.824,115.741C155.961,239.294,150.533,248.928,148.776,259.103z M192.537,296.007c-16.214,0-29.405-13.19-29.405-29.404     c0-16.191,13.198-29.407,29.407-29.407c15.852,0,29.188,12.725,29.396,29.015C221.868,281.12,210.877,296.007,192.537,296.007z      M207.924,224.951c-9.574-3.541-20.619-3.758-30.775,0l-66.823-115.74c51.35-26.866,113.072-26.866,164.421,0L207.924,224.951z      M233.704,249.64c-1.333-3.229-3.06-6.304-5.168-9.162l20.29-5.295L233.704,249.64z M245.514,259.102l34.574-33.056     c5.568-5.325,0.386-14.622-7.077-12.678l-48.365,12.622l63.086-109.268c47.719,30.373,79.669,82.663,82.184,142.38H245.514z" fill="#00382a" data-original="#000000" style="" class=""/>
			<path d="M309.243,193.789c0-7.579-6.155-13.721-13.739-13.699c-11.927,0.034-18.191,14.449-9.861,23.162l-0.004,0.002     l18.775,19.516c2.636,2.74,7.021,2.74,9.657,0l18.775-19.516l-0.004-0.002c8.343-8.724,2.052-23.128-9.859-23.162     C315.399,180.068,309.243,186.21,309.243,193.789z" fill="#00382a" data-original="#000000" style="" class=""/>
		</g>
	</g>
</g>
<g xmlns="http://www.w3.org/2000/svg">
</g>
<g xmlns="http://www.w3.org/2000/svg">
</g>
<g xmlns="http://www.w3.org/2000/svg">
</g>
<g xmlns="http://www.w3.org/2000/svg">
</g>
<g xmlns="http://www.w3.org/2000/svg">
</g>
<g xmlns="http://www.w3.org/2000/svg">
</g>
<g xmlns="http://www.w3.org/2000/svg">
</g>
<g xmlns="http://www.w3.org/2000/svg">
</g>
<g xmlns="http://www.w3.org/2000/svg">
</g>
<g xmlns="http://www.w3.org/2000/svg">
</g>
<g xmlns="http://www.w3.org/2000/svg">
</g>
<g xmlns="http://www.w3.org/2000/svg">
</g>
<g xmlns="http://www.w3.org/2000/svg">
</g>
<g xmlns="http://www.w3.org/2000/svg">
</g>
<g xmlns="http://www.w3.org/2000/svg">
</g>
</g></svg>
