<svg xmlns="http://www.w3.org/2000/svg" viewBox="0 0 512 423.9">
  <defs />
  <path fill="#00382a"
    d="M146.9 30c33.4 0 64.7 14.7 86.1 40.4 5.7 6.8 14.1 10.8 23 10.8h.1c8.8 0 17.2-3.9 22.9-10.7C300.6 44.8 332.4 30 366.1 30h.8c30.8 0 59.7 12 81.4 33.7C470 85.5 482 114.4 482 145.2c0 25.5-10.8 53.8-32.1 84-18.6 26.3-44.9 53.8-78.2 81.7-48.1 40.2-97.1 69.7-115.6 80.3-18.3-10.6-67.1-40.2-115.6-81-33.3-28-59.7-55.5-78.3-81.8C40.8 198.2 30 170.3 30 145.2c0-30.8 12-59.7 33.7-81.4C85.5 42 114.4 30 145.2 30H146.9m0-30h-1.7C65 0 0 65 0 145.2c0 137.4 239.8 271.6 249.5 276.7 2 1.3 4.2 2 6.5 2s4.5-.7 6.5-2c9.7-5.2 249.5-137.4 249.5-276.7C512 65 447 0 366.8 0h-.8c-42.4 0-82.7 18.7-110 51.2C229 18.7 189 0 146.9 0z" />
</svg>
