<svg xmlns="http://www.w3.org/2000/svg" id="prefix__Calque_1" x="0" y="0" version="1.1" viewBox="0 0 512 476.8"
  xml:space="preserve">
  <defs />
  <style>
    .prefix__st0 {
      fill: #00382a
    }
  </style>
  <path
    d="M503.4 215.5l-77.6-77.6V48.2c0-16.2-13.1-29.3-29.4-29.3-16.2 0-29.3 13.1-29.3 29.3v30.9l-57.8-57.8c-28.6-28.5-78.2-28.5-106.7.1l-194 194c-11.5 11.5-11.5 30 0 41.5s30.1 11.5 41.5 0l194-194c6.3-6.3 17.5-6.3 23.7 0l194 194c5.8 5.7 13.3 8.6 20.8 8.6s15-2.9 20.8-8.6c11.5-11.4 11.5-30 0-41.4z"
    class="prefix__st0" />
  <path
    d="M436.8 289.2L266.2 118.6c-5.6-5.6-14.8-5.6-20.4 0L75.1 289.2c-2.7 2.7-4.2 6.4-4.2 10.2v124.4c0 29.2 23.7 52.9 52.9 52.9h264.4c29.2 0 52.9-23.7 52.9-52.9V299.5c0-3.9-1.6-7.6-4.3-10.3zM258.2 413.4c-1.3.9-3 .9-4.3 0-3.2-1.7-83.1-46.4-83.1-92.2 0-26.7 21.7-48.4 48.4-48.4 14.2-.2 27.8 6.1 36.9 17.1 9.2-10.9 22.7-17.1 36.9-17.1 26.7 0 48.4 21.7 48.4 48.4-.1 46.4-80 90.5-83.2 92.2z"
    class="prefix__st0" />
</svg>
