<?xml version="1.0"?>
<svg xmlns="http://www.w3.org/2000/svg" xmlns:xlink="http://www.w3.org/1999/xlink" xmlns:svgjs="http://svgjs.com/svgjs" version="1.1" width="512" height="512" x="0" y="0" viewBox="0 0 612 612" style="enable-background:new 0 0 512 512" xml:space="preserve" class=""><g>
<g xmlns="http://www.w3.org/2000/svg">
	<path d="M306.001,0C137.002,0,0,137.001,0,305.999C0,474.999,137.001,612,306.001,612S612,474.999,612,305.999   C612,137.001,474.999,0,306.001,0z M343.217,450.638c0,20.553-16.663,37.216-37.216,37.216c-20.555,0-37.216-16.661-37.216-37.216   V313.289c-10.067-6.66-16.709-18.087-16.709-31.062c0-20.553,16.663-37.216,37.216-37.216h16.709   c20.553,0,37.216,16.663,37.216,37.216V450.638z M306.001,224.214c-27.406,0-49.622-22.215-49.622-49.62   s22.216-49.622,49.622-49.622c27.402,0,49.622,22.216,49.622,49.622S333.403,224.214,306.001,224.214z" fill="#00382a" data-original="#000000" style="" class=""/>
</g>
<g xmlns="http://www.w3.org/2000/svg">
</g>
<g xmlns="http://www.w3.org/2000/svg">
</g>
<g xmlns="http://www.w3.org/2000/svg">
</g>
<g xmlns="http://www.w3.org/2000/svg">
</g>
<g xmlns="http://www.w3.org/2000/svg">
</g>
<g xmlns="http://www.w3.org/2000/svg">
</g>
<g xmlns="http://www.w3.org/2000/svg">
</g>
<g xmlns="http://www.w3.org/2000/svg">
</g>
<g xmlns="http://www.w3.org/2000/svg">
</g>
<g xmlns="http://www.w3.org/2000/svg">
</g>
<g xmlns="http://www.w3.org/2000/svg">
</g>
<g xmlns="http://www.w3.org/2000/svg">
</g>
<g xmlns="http://www.w3.org/2000/svg">
</g>
<g xmlns="http://www.w3.org/2000/svg">
</g>
<g xmlns="http://www.w3.org/2000/svg">
</g>
</g></svg>
