<svg id="Capa_1" enable-background="new 0 0 512 512" height="512" viewBox="0 0 512 512" width="512" xmlns="http://www.w3.org/2000/svg"><path d="m256 496.831c-8.47 0-15.337-6.867-15.337-15.337v-30.674h30.674v30.674c0 8.471-6.867 15.337-15.337 15.337z" fill="#c25025"/><path d="m240.663 450.82s-53.68 3.319-53.68 36.189c0 16.895 14.182 18.886 27.967 16.83 14.884-2.22 25.713-14.581 25.713-28.82z" fill="#e36334"/><path d="m271.337 450.82s53.68 3.319 53.68 36.189c0 16.895-14.182 18.886-27.967 16.83-14.884-2.22-25.713-14.581-25.713-28.82z" fill="#e36334"/><path d="m256 461.872c-15.6 0-28.246-12.646-28.246-28.246v-157.498h56.492v157.498c0 15.6-12.646 28.246-28.246 28.246z" fill="#d45728"/><path d="m254.246 276.128v157.498c0 10.087-5.292 18.933-13.246 23.93 4.347 2.731 9.487 4.316 15 4.316 15.6 0 28.246-12.646 28.246-28.246v-157.498z" fill="#c25025"/><path d="m263 408.686h-14c-17.673 0-32-14.327-32-32v-128.256h78v128.256c0 17.673-14.327 32-32 32z" fill="#e36334"/><path d="m265 248.43v128.256c0 14.911-10.198 27.44-24 30.992 2.557.658 5.238 1.008 8 1.008h14c17.673 0 32-14.327 32-32v-128.256z" fill="#d45728"/><path d="m268.011 352.367h-24.022c-18.778 0-34-15.222-34-34v-75.518h92.022v75.518c0 18.777-15.222 34-34 34z" fill="#d45728"/><g fill="#c25025"><path d="m272.011 242.849v75.518c0 17.77-13.635 32.347-31.011 33.862.986.086 1.981.138 2.989.138h24.022c18.778 0 34-15.222 34-34v-75.518z"/><path d="m209.809 189.432c-1.047 6.719-6.51 12.154-13.596 12.884-50.02 5.136-82.229-16.33-83.579-17.245-6.996-4.766-8.831-14.295-4.047-21.307 4.748-6.98 14.234-8.806 21.232-4.104 1.231.806 25.093 16.063 63.267 12.14 8.426-.862 15.953 5.264 16.822 13.691.139 1.344.093 2.663-.099 3.941z"/><path d="m302.191 189.432c1.047 6.719 6.51 12.154 13.596 12.884 50.02 5.136 82.229-16.33 83.579-17.245 6.996-4.766 8.831-14.295 4.047-21.307-4.748-6.98-14.234-8.806-21.232-4.104-1.231.806-25.093 16.063-63.267 12.14-8.426-.862-15.953 5.264-16.822 13.691-.139 1.344-.093 2.663.099 3.941z"/><path d="m211.038 56.439c-6.201-2.747-20.361 36.236-60.69 41.933-11.225 1.586-20.57 10.033-24.298 21.26-6.265 18.865-2.151 34.698 7.31 42.112 12.799 10.03 38.766-4.142 57.998-31.653s32.479-63.623 19.68-73.652z"/></g><path d="m300.962 56.439c6.201-2.747 20.361 36.236 60.69 41.933 11.225 1.586 20.57 10.033 24.298 21.26 6.265 18.865 2.151 34.698-7.31 42.112-12.799 10.03-38.766-4.142-57.998-31.653s-32.479-63.623-19.68-73.652z" fill="#d45728"/><path d="m181.464 9.265c7.301 6.636-30.402 50.983-11.231 109.338 5.336 16.243 1.215 34.362-9.869 46.66-18.625 20.664-40.302 25.3-55.312 17.256-20.307-10.883-20.032-55.232.616-99.057s55.488-85.08 75.796-74.197z" fill="#e36334"/><path d="m181.464 9.265c-8.41-4.507-19.313-.066-30.668 9.79-5.98 17.302-25.435 54.191-10.534 99.548 5.336 16.243 1.215 34.362-9.869 46.66-7.807 8.661-16.149 14.497-24.313 17.773 14.961 7.303 36.078 2.426 54.283-17.773 11.085-12.298 15.206-30.417 9.869-46.66-19.171-58.356 18.532-102.703 11.232-109.338z" fill="#d45728"/><path d="m330.536 9.265c-7.301 6.636 30.402 50.983 11.231 109.338-5.336 16.243-1.215 34.362 9.869 46.66 18.625 20.664 40.302 25.3 55.312 17.256 20.307-10.883 20.032-55.232-.616-99.057-20.647-43.826-55.488-85.08-75.796-74.197z" fill="#e36334"/><path d="m406.332 83.461c-20.647-43.825-55.489-85.079-75.796-74.196-1.626 1.478-1.017 4.832.697 9.79 16.064 13.943 33.032 38.731 45.128 64.406 20.647 43.825 20.923 88.174.616 99.057-.338.181-.684.348-1.028.517 11.312 4.54 22.281 4.156 30.999-.517 20.307-10.883 20.032-55.232-.616-99.057z" fill="#d45728"/><path d="m283.177 285.588h-54.355c-18.872 0-34.171-15.299-34.171-34.171v-52.942c0-28.123 22.798-50.921 50.921-50.921h20.855c28.123 0 50.921 22.798 50.921 50.921v52.942c0 18.872-15.299 34.171-34.171 34.171z" fill="#e36334"/><path d="m266.427 147.554h-20.855c-1.542 0-3.065.08-4.573.215 25.979 2.314 46.348 24.126 46.348 50.706v52.942c0 18.872-15.299 34.171-34.171 34.171h30c18.872 0 34.171-15.299 34.171-34.171v-52.942c.001-28.123-22.797-50.921-50.92-50.921z" fill="#d45728"/><path d="m324.849 210.478c2.122.085 4.215.134 6.269.134 37.45 0 63.029-13.571 70.404-18.02 3.093-.772 6.096-1.918 8.97-3.458 11.444-6.133 18.169-20.118 18.934-39.379.691-17.387-3.456-38.285-11.677-58.846-1.538-3.846-5.902-5.718-9.748-4.179-3.847 1.538-5.718 5.902-4.18 9.749 16.111 40.293 12.329 72.605-.415 79.435-23.335 12.505-65.981-20.057-54.513-54.965 11.227-34.171 4.895-64.499-7.664-96.645-1.208-3.092-2.609-6.68-3.435-9.276 4.989.02 11.864 3.716 19.582 10.651 10.832 9.733 22.484 25.013 32.808 43.023 2.06 3.593 6.644 4.836 10.236 2.777 3.594-2.06 4.837-6.643 2.777-10.237-11.096-19.357-23.809-35.95-35.796-46.721-19.311-17.355-32.634-16.032-40.407-11.865-9.106 4.881-3.447 17.604.264 27.104 4.91 12.567 12.042 30.853 12.457 52.701-15.416-9.711-23.678-23.902-29.812-29.769-5.132-4.91-10.362-4.668-13.568-2.152-19.176 15.027.354 58.378 18.16 83.854 7.311 10.451 15.781 19.427 24.575 26.068.76 1.369 1.576 2.708 2.454 4.009-7.123.674-14.431.635-21.851-.127-1.934-.196-3.87-.134-5.768.154-5.184-7.222-11.962-13.225-19.829-17.469l3.691-12.243c1.195-3.966-1.05-8.15-5.016-9.346-3.965-1.196-8.15 1.05-9.346 5.016l-3.382 11.216c-4.365-1.045-8.914-1.614-13.595-1.614h-20.856c-4.681 0-9.229.569-13.595 1.614l-3.382-11.216c-1.196-3.966-5.381-6.212-9.346-5.016-3.966 1.196-6.211 5.38-5.016 9.346l3.691 12.243c-7.867 4.244-14.645 10.246-19.829 17.468-1.899-.289-3.836-.35-5.773-.153-7.417.761-14.724.799-21.846.126.877-1.3 1.693-2.639 2.453-4.008 8.793-6.641 17.264-15.617 24.577-26.071 17.805-25.473 37.334-68.824 18.158-83.851-3.21-2.518-8.407-2.785-13.568 2.152-6.134 5.867-14.396 20.059-29.812 29.769.416-21.848 7.547-40.134 12.457-52.701 3.711-9.5 9.37-22.222.264-27.104-5.783-3.1-12.648-3.478-19.851-1.098-23.886 7.897-50.497 45.222-66.274 78.709-10.44 22.16-16.258 45.256-16.381 65.032-.134 21.626 6.616 37.192 19.007 43.833 2.875 1.541 5.878 2.687 8.971 3.459 7.376 4.45 32.949 18.02 70.403 18.02 2.052 0 4.146-.048 6.269-.134v1.213c0 4.142 3.357 7.5 7.5 7.5s7.5-3.358 7.5-7.5v-13.212c0-23.943 19.479-43.421 43.421-43.421h20.856c23.942 0 43.421 19.479 43.421 43.421v52.943c0 14.707-11.965 26.671-26.671 26.671h-54.356c-14.706 0-26.671-11.964-26.671-26.671v-7.545c0-4.142-3.357-7.5-7.5-7.5s-7.5 3.358-7.5 7.5v7.545c0 6.594 1.546 12.832 4.285 18.38l-27.77-5.367c-1.63-.316-3.315-.081-4.795.665l-51.744 26.05c-1.169.588-2.163 1.472-2.885 2.563l-18.499 27.983c-2.284 3.456-1.335 8.108 2.121 10.393 3.463 2.289 8.112 1.328 10.393-2.12l17.397-26.318 47.677-24.002 39.159 7.567v31.16c0 8.523 2.586 16.453 7.01 23.051v.493l-34.079-11.035c-1.852-.599-3.863-.456-5.611.401l-41.524 20.353c-1.447.709-2.627 1.865-3.365 3.297l-14.111 27.366c-1.898 3.682-.453 8.205 3.229 10.104 3.668 1.891 8.199.467 10.104-3.229l12.975-25.161 36.57-17.925 35.814 11.597v19.01c0 5.311 1.06 10.378 2.97 15.008l-22.461-5.65c-2.024-.509-4.17-.151-5.92.987l-24.763 16.112c-1.098.715-1.99 1.705-2.587 2.872l-13.188 25.787c-1.886 3.688-.425 8.207 3.263 10.092 3.695 1.89 8.21.418 10.093-3.262l12.276-24.007 20.342-13.236 30.725 7.728v24.508c0 4.4.804 8.615 2.266 12.512-27.5 6.46-43.036 21.024-43.036 40.869 0 8.115 2.592 14.464 7.703 18.872 4.715 4.066 11.29 6.11 19.615 6.11 2.879 0 5.966-.244 9.258-.733 9.675-1.444 18.091-6.48 23.876-13.554 4.13 4.092 9.808 6.625 16.067 6.625 6.26 0 11.938-2.533 16.067-6.626 5.786 7.074 14.203 12.11 23.88 13.554 3.291.489 6.376.733 9.254.733 8.323 0 14.9-2.044 19.615-6.11 5.111-4.408 7.703-10.757 7.703-18.872 0-5.893-1.388-11.404-4.123-16.38-1.997-3.629-6.558-4.954-10.186-2.958-3.63 1.996-4.954 6.556-2.959 10.186 1.526 2.774 2.268 5.769 2.268 9.152 0 5.357-1.881 6.979-2.499 7.512-2.811 2.424-8.804 3.099-16.864 1.9-11.012-1.643-19.316-10.844-19.316-21.403v-13.919c.576-.48 1.133-.982 1.678-1.496 3.824.7 8.519 1.772 13.292 3.393.8.271 1.613.4 2.413.4 3.124 0 6.04-1.968 7.101-5.09 1.332-3.922-.768-8.181-4.689-9.513-3.151-1.07-6.257-1.931-9.16-2.626 1.468-3.904 2.277-8.128 2.277-12.539v-24.508l30.725-7.728 20.342 13.236 12.276 24.007c1.884 3.682 6.401 5.151 10.093 3.262 3.688-1.886 5.148-6.404 3.263-10.092l-13.188-25.787c-.597-1.167-1.489-2.157-2.587-2.872l-24.763-16.112c-1.75-1.138-3.896-1.496-5.92-.987l-22.461 5.65c1.909-4.63 2.97-9.697 2.97-15.008v-19.01l35.814-11.597 36.57 17.925 12.975 25.161c1.906 3.694 6.433 5.121 10.104 3.229 3.682-1.898 5.127-6.422 3.229-10.104l-14.111-27.366c-.738-1.432-1.918-2.588-3.365-3.297l-41.524-20.353c-1.748-.856-3.761-1-5.611-.401l-34.079 11.035v-.493c4.424-6.598 7.01-14.527 7.01-23.051v-31.16l39.159-7.567 47.677 24.002 17.398 26.318c2.289 3.461 6.944 4.401 10.393 2.12 3.456-2.284 4.405-6.937 2.121-10.393l-18.499-27.983c-.722-1.091-1.716-1.975-2.885-2.563l-51.747-26.048c-1.479-.745-3.164-.98-4.795-.665l-27.77 5.367c2.739-5.548 4.285-11.786 4.285-18.38v-40.944zm-116.246-142.493c.844 10.573-6.127 33.116-23.388 57.81-1.677 2.398-3.418 4.702-5.209 6.9-.094-13.883-4.309-17.153-6.698-33.651 15.715-7.727 25.506-19.021 35.295-31.059zm-111.101 77.408c.109-17.643 5.419-38.501 14.951-58.732 16.774-35.607 40.92-65.407 57.412-70.859 1.76-.582 3.195-.79 4.348-.797-.824 2.598-2.23 6.197-3.441 9.298-12.495 31.983-18.93 62.356-7.664 96.646 11.627 35.389-31.252 67.426-54.513 54.964-7.147-3.831-11.19-14.955-11.093-30.52zm42.677 44.027c6.172-2.673 12.268-6.547 18.05-11.562 10.364 1.963 21.126 2.53 32.085 1.702-1.727 5.03-2.801 10.36-3.084 15.899-19.214.873-35.177-2.247-47.051-6.039zm186.609-63.623c-17.262-24.696-24.233-47.239-23.39-57.812 9.923 12.205 19.578 23.331 35.295 31.059-2.397 16.555-6.604 19.705-6.698 33.651-1.791-2.198-3.531-4.502-5.207-6.898zm26.984 52.061c5.781 5.015 11.876 8.887 18.047 11.561-11.875 3.791-27.836 6.912-47.048 6.04-.283-5.539-1.357-10.869-3.084-15.898 10.964.826 21.723.26 32.085-1.703zm-77.022 255.779c0 11.436-9.309 20.74-20.75 20.74s-20.75-9.304-20.75-20.74v-19.913c4.284 1.596 8.916 2.473 13.75 2.473h14c4.834 0 9.466-.877 13.75-2.473zm-13.75-32.44h-14c-13.51 0-24.5-10.991-24.5-24.5v-21.696c5.815 3.107 12.449 4.875 19.49 4.875h24.02c7.041 0 13.675-1.768 19.49-4.875v21.696c0 13.509-10.99 24.5-24.5 24.5zm20.178-108.104c3.928 0 7.726-.558 11.332-1.579v26.861c0 14.612-11.888 26.5-26.5 26.5h-24.02c-14.612 0-26.5-11.888-26.5-26.5v-26.861c3.606 1.021 7.404 1.579 11.332 1.579zm-69.33 203.337c-8.066 1.199-14.058.524-16.868-1.899-.618-.533-2.499-2.155-2.499-7.512 0-18.081 23.495-24.953 36.999-27.408.546.515 1.103 1.018 1.681 1.499v13.919c0 10.557-8.305 19.758-19.313 21.401zm49.992-14.932c0 4.323-3.517 7.84-7.84 7.84s-7.84-3.517-7.84-7.84v-12.997c2.525.567 5.146.876 7.84.876s5.315-.309 7.84-.876z"/></svg>