<svg xmlns="http://www.w3.org/2000/svg" viewBox="0 0 360.49 360.49">
  <defs />
  <g xmlns="http://www.w3.org/2000/svg">
    <path fill="#00382a"
      d="M96.653 0H13.061C7.29 0 2.612 4.678 2.612 10.449v83.592c0 5.771 4.678 10.449 10.449 10.449h83.592c5.771 0 10.449-4.678 10.449-10.449V10.449C107.102 4.678 102.424 0 96.653 0zM222.041 0h-83.592C132.678 0 128 4.678 128 10.449v83.592c0 5.771 4.678 10.449 10.449 10.449h83.592c5.771 0 10.449-4.678 10.449-10.449V10.449C232.49 4.678 227.812 0 222.041 0zM96.653 125.388H13.061c-5.771 0-10.449 4.678-10.449 10.449v83.592c0 5.771 4.678 10.449 10.449 10.449h83.592c5.771 0 10.449-4.678 10.449-10.449v-83.592c0-5.771-4.678-10.449-10.449-10.449zM222.041 125.388h-83.592c-5.771 0-10.449 4.678-10.449 10.449v83.592c0 5.771 4.678 10.449 10.449 10.449h83.592c5.771 0 10.449-4.678 10.449-10.449v-83.592c0-5.771-4.678-10.449-10.449-10.449zM347.429 0h-83.592c-5.771 0-10.449 4.678-10.449 10.449v83.592c0 5.771 4.678 10.449 10.449 10.449h83.592c5.771 0 10.449-4.678 10.449-10.449V10.449C357.878 4.678 353.199 0 347.429 0zM347.429 125.388h-83.592c-5.771 0-10.449 4.678-10.449 10.449v83.592c0 5.771 4.678 10.449 10.449 10.449h83.592c5.771 0 10.449-4.678 10.449-10.449v-83.592c0-5.771-4.679-10.449-10.449-10.449zM96.653 256H13.061c-5.771 0-10.449 4.678-10.449 10.449v83.592c0 5.771 4.678 10.449 10.449 10.449h83.592c5.771 0 10.449-4.678 10.449-10.449v-83.592c0-5.771-4.678-10.449-10.449-10.449zM222.041 256h-83.592c-5.771 0-10.449 4.678-10.449 10.449v83.592c0 5.771 4.678 10.449 10.449 10.449h83.592c5.771 0 10.449-4.678 10.449-10.449v-83.592c0-5.771-4.678-10.449-10.449-10.449zM347.429 256h-83.592c-5.771 0-10.449 4.678-10.449 10.449v83.592c0 5.771 4.678 10.449 10.449 10.449h83.592c5.771 0 10.449-4.678 10.449-10.449v-83.592c0-5.771-4.679-10.449-10.449-10.449z"
      data-original="#000000" />
  </g>
</svg>
