<svg xmlns="http://www.w3.org/2000/svg" viewBox="0 0 385.072 385.072">
  <defs />
  <g xmlns="http://www.w3.org/2000/svg">
    <path fill="#00382a"
      d="M288.824 99.842l-.004-.002c-59.388-34.366-133.172-34.368-192.561-.003l-.01.005C38.527 133.231 0 195.607 0 266.603a7.5 7.5 0 007.5 7.5h141.278c3.576 20.924 21.831 36.904 43.758 36.904 22.02 0 39.793-15.259 43.698-36.904h141.338a7.5 7.5 0 007.5-7.5c.001-71.024-38.55-133.386-96.248-166.761zM148.776 259.103H15.158c2.515-59.71 34.459-112.003 82.184-142.38l66.824 115.741c-8.205 6.83-13.633 16.464-15.39 26.639zm43.761 36.904c-16.214 0-29.405-13.19-29.405-29.404 0-16.191 13.198-29.407 29.407-29.407 15.852 0 29.188 12.725 29.396 29.015-.067 14.909-11.058 29.796-29.398 29.796zm15.387-71.056c-9.574-3.541-20.619-3.758-30.775 0l-66.823-115.74c51.35-26.866 113.072-26.866 164.421 0l-66.823 115.74zm25.78 24.689a43.183 43.183 0 00-5.168-9.162l20.29-5.295-15.122 14.457zm11.81 9.462l34.574-33.056c5.568-5.325.386-14.622-7.077-12.678l-48.365 12.622 63.086-109.268c47.719 30.373 79.669 82.663 82.184 142.38H245.514z"
      data-original="#000000" />
    <path fill="#00382a"
      d="M309.243 193.789c0-7.579-6.155-13.721-13.739-13.699-11.927.034-18.191 14.449-9.861 23.162l-.004.002 18.775 19.516a6.7 6.7 0 009.657 0l18.775-19.516-.004-.002c8.343-8.724 2.052-23.128-9.859-23.162-7.584-.022-13.74 6.12-13.74 13.699z"
      data-original="#000000" />
  </g>
</svg>
