<svg xmlns="http://www.w3.org/2000/svg" viewBox="0 0 512 512">
  <defs />
  <g xmlns="http://www.w3.org/2000/svg" fill="#00382a">
    <path
      d="M271 296a8 8 0 00-16 0c0 4.994-1.89 7.154-5.021 10.732C246.19 311.062 241 316.994 241 328s5.19 16.938 8.979 21.268C253.11 352.846 255 355.006 255 360a8 8 0 0016 0c0-11.006-5.19-16.938-8.979-21.268C258.89 335.154 257 332.994 257 328s1.89-7.154 5.021-10.732C265.81 312.938 271 307.006 271 296zM319 296a8 8 0 00-16 0c0 4.994-1.89 7.154-5.021 10.732C294.19 311.062 289 316.994 289 328s5.19 16.938 8.979 21.268C301.11 352.846 303 355.006 303 360a8 8 0 0016 0c0-11.006-5.19-16.938-8.979-21.268C306.89 335.154 305 332.994 305 328s1.89-7.154 5.021-10.732C313.81 312.938 319 307.006 319 296zM223 296a8 8 0 00-16 0c0 4.994-1.89 7.154-5.021 10.732C198.19 311.062 193 316.994 193 328s5.19 16.938 8.979 21.268C205.11 352.846 207 355.006 207 360a8 8 0 0016 0c0-11.006-5.19-16.938-8.979-21.268C210.89 335.154 209 332.994 209 328s1.89-7.154 5.021-10.732C217.81 312.938 223 307.006 223 296z"
      data-original="#000000" />
    <path d="M440 144H72a8 8 0 00-8 8v288a8 8 0 008 8h368a8 8 0 008-8V152a8 8 0 00-8-8zm-8 288H80V160h352z"
      data-original="#000000" />
    <path
      d="M452 16H60a44.049 44.049 0 00-44 44v392a44.049 44.049 0 0044 44h392a44.049 44.049 0 0044-44V60a44.049 44.049 0 00-44-44zM32 60a28.032 28.032 0 0128-28h392a28.032 28.032 0 0128 28v36H32zm420 420H60a28.032 28.032 0 01-28-28V112h448v340a28.032 28.032 0 01-28 28z"
      data-original="#000000" />
    <path
      d="M312 40H200a8 8 0 00-8 8v32a8 8 0 008 8h112a8 8 0 008-8V48a8 8 0 00-8-8zm-8 32h-96V56h96zM120 256h272a24 24 0 008-46.624V184a8 8 0 00-8-8h-32a8 8 0 00-8 8v24H160v-24a8 8 0 00-8-8h-32a8 8 0 00-8 8v25.376A24 24 0 00120 256zm248-64h16v16h-16zm-240 0h16v16h-16zm-8 32h272a8 8 0 010 16H120a8 8 0 010-16zM152 40a24 24 0 1024 24 24.027 24.027 0 00-24-24zm0 32a8 8 0 118-8 8.009 8.009 0 01-8 8zM88 40a24 24 0 1024 24 24.027 24.027 0 00-24-24zm0 32a8 8 0 118-8 8.009 8.009 0 01-8 8zM424 40a24 24 0 1024 24 24.027 24.027 0 00-24-24zm0 32a8 8 0 118-8 8.009 8.009 0 01-8 8zM360 40a24 24 0 1024 24 24.027 24.027 0 00-24-24zm0 32a8 8 0 118-8 8.009 8.009 0 01-8 8zM328 400H184a8 8 0 000 16h144a8 8 0 000-16zM368 400h-8a8 8 0 000 16h8a8 8 0 000-16z"
      data-original="#000000" />
  </g>
</svg>
