<svg xmlns="http://www.w3.org/2000/svg" viewBox="-57 0 511 511.999">
  <defs />
  <path fill="#c5efed"
    d="M288.164 512H109.277c-34.28 0-62.07-27.79-62.07-62.07V267.293h303.027V449.93c0 34.28-27.789 62.07-62.07 62.07zm0 0" />
  <path fill="#b7e2e0"
    d="M47.207 267.293V449.93c0 34.28 27.79 62.07 62.07 62.07h54.414c-18.707-11.953-16.89-46.832-16.89-46.832v-26.887c0-29.011 18.89-54.804 46.687-63.11 74.77-22.343 98.805-82.683 105.727-107.878zm0 0" />
  <path fill="#8dc971"
    d="M206.445 389.648h-15.449v-186.41c0-34.851-15.559-67.39-42.68-89.277L69.414 50.297l9.707-12.027 78.899 63.664c30.777 24.832 48.425 61.757 48.425 101.304zm0 0" />
  <path fill="#7fb762"
    d="M206.445 389.648v-186.41c0-29.277-9.672-57.113-27.183-79.675a202.276 202.276 0 00-9.582 13c13.757 19.218 21.316 42.39 21.316 66.675v186.41zm0 0" />
  <path fill="#9ad880"
    d="M206.445 389.648h-15.449v-186.41c0-39.547 17.649-76.468 48.426-101.304L318.32 38.27l9.707 12.027-78.898 63.664c-27.125 21.887-42.684 54.426-42.684 89.277zm0 0" />
  <path fill="#8ed7e8"
    d="M47.207 348.504V449.93c0 34.28 27.79 62.07 62.07 62.07h178.887c34.281 0 62.07-27.79 62.07-62.07V348.504zm0 0" />
  <path fill="#7ac1dd"
    d="M47.207 348.504V449.93c0 34.28 27.79 62.07 62.07 62.07h54.414c-18.707-11.953-16.89-46.832-16.89-46.832v-26.887c0-29.011 18.89-54.804 46.687-63.11 21.305-6.366 38.5-15.823 52.344-26.667zm0 0" />
  <path fill="#7fb762"
    d="M326.71 143.059c13.048-8.688 52.911-39.239 57.247-90.676 1.36-16.13-6.96-31.555-21.187-39.281-45.36-24.633-92.786-8.106-107.215-1.977-28.043 11.922-29.551 34.719-19.684 53.012 7.617 14.125 19.848 18.136 30.422 18.523 6.07.219 9.629 6.848 6.465 12.035-5.496 9.012-8.852 21.43-1.156 35.692 9.867 18.297 29.742 29.558 55.109 12.672zm0 0" />
  <path fill="#6ca04d"
    d="M272.758 94.695c-5.496 9.008-8.852 21.426-1.156 35.692 9.867 18.297 29.742 29.558 55.109 12.672 13.047-8.688 52.91-39.239 57.246-90.676a40.747 40.747 0 00-4.398-22.125l-106.813 56.14c1.477 2.391 1.692 5.543.012 8.297zm0 0" />
  <path fill="#7fb762"
    d="M70.73 143.059c-13.046-8.688-52.91-39.239-57.246-90.676-1.359-16.13 6.961-31.555 21.188-39.281 45.36-24.633 92.789-8.106 107.215-1.977 28.043 11.922 29.55 34.719 19.683 53.012-7.617 14.125-19.847 18.136-30.418 18.523-6.074.219-9.632 6.848-6.464 12.035 5.496 9.012 8.847 21.43 1.152 35.692-9.863 18.297-29.742 29.558-55.11 12.672zm0 0" />
  <path fill="#6ca04d"
    d="M124.684 94.695c5.496 9.008 8.851 21.426 1.156 35.692-9.867 18.297-29.742 29.558-55.11 12.672-13.046-8.688-52.91-39.239-57.246-90.676a40.776 40.776 0 014.399-22.125l106.812 56.137c-1.476 2.394-1.691 5.546-.011 8.3zm0 0" />
  <path fill="#d4f9f6"
    d="M359.262 304.973H38.18c-20.723 0-37.68-16.957-37.68-37.68s16.957-37.676 37.68-37.676h321.082c20.726 0 37.68 16.953 37.68 37.676 0 20.723-16.954 37.68-37.68 37.68zm0 0" />
  <path fill="#c5efed"
    d="M83.59 267.293c0-20.723 16.957-37.68 37.68-37.68H38.18C17.457 229.613.5 246.57.5 267.293s16.957 37.68 37.68 37.68h83.09c-20.723 0-37.68-16.957-37.68-37.68zm0 0" />
  <path fill="#57565c"
    d="M198.723 469.527c-15.989 0-28.95-12.96-28.95-28.949v-21.047a7.901 7.901 0 017.903-7.902h42.09a7.905 7.905 0 017.906 7.902v21.047c-.004 15.988-12.961 28.95-28.95 28.95zm0 0" />
  <path fill="#ffa6bb"
    d="M132.766 440.578c0-13.578-13.825-24.59-30.88-24.59-17.05 0-30.874 11.012-30.874 24.59 0 13.582 13.824 24.59 30.875 24.59 17.054 0 30.879-11.008 30.879-24.59zm0 0M326.43 440.578c0-13.578-13.825-24.59-30.875-24.59-17.055 0-30.88 11.012-30.88 24.59 0 13.582 13.825 24.59 30.88 24.59 17.05 0 30.875-11.008 30.875-24.59zm0 0" />
  <g fill="#57565c">
    <path
      d="M281.813 427.082a7.726 7.726 0 01-7.727-7.727v-12.828a7.726 7.726 0 1115.453 0v12.828a7.729 7.729 0 01-7.726 7.727zm0 0M115.629 427.082a7.729 7.729 0 01-7.727-7.727v-12.828a7.726 7.726 0 1115.453 0v12.828a7.726 7.726 0 01-7.726 7.727zm0 0" />
  </g>
</svg>
