<svg xmlns="http://www.w3.org/2000/svg" viewBox="0 0 512 512">
  <defs />
  <g fill="#00382a">
    <path xmlns="http://www.w3.org/2000/svg"
      d="M264.031 221.191c-2.554 0-5.156.25-7.734.739a14.994 14.994 0 01-14.977-5.993c-7.75-10.792-20.277-17.238-33.52-17.238-13.241 0-25.773 6.446-33.519 17.238a14.988 14.988 0 01-14.972 5.993 41.79 41.79 0 00-7.743-.739c-22.734 0-41.234 18.5-41.234 41.235s18.5 41.23 41.234 41.23c8.286 0 15 6.719 15 15v26.774h82.465v-26.774c0-8.281 6.719-15 15-15 22.739 0 41.235-18.496 41.235-41.23.004-22.735-18.496-41.235-41.235-41.235zm0 0"
      data-original="#000000" />
    <path xmlns="http://www.w3.org/2000/svg"
      d="M399.531 30h1.07c8.286 0 15-6.715 15-15s-6.714-15-15-15H55.165C24.746 0 0 24.746 0 55.168v401.668C0 487.254 24.746 512 55.164 512h305.27c30.421 0 55.168-24.746 55.168-55.164V135.5c0-15.152-6.145-28.895-16.067-38.875V30zm-120.5 302.07v76.563c0 8.285-6.715 15-15 15h-112.46c-8.286 0-15-6.715-15-15V332.07c-32.102-6.906-56.235-35.511-56.235-69.644 0-39.278 31.953-71.235 71.234-71.235 1.39 0 2.79.043 4.192.13 13.383-14.301 32.25-22.622 52.039-22.622 19.793 0 38.656 8.32 52.043 22.621a68.32 68.32 0 014.187-.129c39.281 0 71.235 31.957 71.235 71.235.004 34.133-24.133 62.738-56.235 69.644zm90.5-250.972c-2.96-.493-6-.762-9.101-.762H55.164C41.29 80.336 30 69.046 30 55.168 30 41.289 41.29 30 55.164 30h314.367zm0 0"
      data-original="#000000" />
    <path xmlns="http://www.w3.org/2000/svg" d="M166.57 375.434h82.465v18.199H166.57zm0 0" data-original="#000000" />
  </g>
</svg>
