<svg id="Filled" height="512" viewBox="0 0 512 512" width="512" xmlns="http://www.w3.org/2000/svg"><path d="m304 368c79.529 0 128-64.471 128-144s-48.471-144-128-144h-40v288z" fill="#ed8989"/><path d="m272 368c79.529 0 128-64.471 128-144s-48.471-144-128-144h-40v288z" fill="#ffc9c9"/><path d="m240 368c79.529 0 128-64.471 128-144s-48.471-144-128-144h-48v288z" fill="#ed8989"/><circle cx="192" cy="224" fill="#ffc9c9" r="144"/><path d="m488 392-48-8v-48l48-8-8 32z" fill="#d46360"/><path d="m384 432c35.346 0 64-32.235 64-72s-28.654-72-64-72h-288v144z" fill="#ed6f6d"/><circle cx="96" cy="360" fill="#ff9494" r="72"/><circle cx="80" cy="376" fill="#ed6f6d" r="16"/><path d="m96 440h288c28.883 0 53.833-19 65.294-46.341l37.391 6.232a8 8 0 0 0 9.076-9.831l-7.515-30.06 7.515-30.06a8 8 0 0 0 -9.076-9.831l-37.391 6.232a79.177 79.177 0 0 0 -23.317-31.277c9.18-21.311 14.023-45.72 14.023-71.064 0-41.517-12.81-79.514-36.07-106.992-24.925-29.445-59.48-45.008-99.93-45.008h-112c-83.813 0-152 68.187-152 152a152.138 152.138 0 0 0 15.547 67.023 79.974 79.974 0 0 0 40.453 148.977zm358.09-98.238 23.189-3.865-5.04 20.163a7.985 7.985 0 0 0 0 3.88l5.04 20.163-23.189-3.865a88.03 88.03 0 0 0 0-36.476zm-14.09 18.238c0 35.29-25.121 64-56 64h-240.055a79.918 79.918 0 0 0 0-128h32.055c17.927 0 48 8.314 48 64a8 8 0 0 0 16 0c0-28.432-7.715-50.351-21.709-64h37.709c17.927 0 48 8.314 48 64a8 8 0 0 0 16 0c0-28.432-7.715-50.351-21.709-64h29.709c17.927 0 48 8.314 48 64a8 8 0 0 0 16 0c0-28.432-7.715-50.351-21.709-64h13.709c30.879 0 56 28.71 56 64zm-48.282-232.655c20.817 24.593 32.282 58.919 32.282 96.655 0 22.262-4.039 43.661-11.732 62.432a66.357 66.357 0 0 0 -13.232-4.664 183.374 183.374 0 0 0 8.964-57.768c0-41.517-12.811-79.514-36.07-106.992a128.724 128.724 0 0 0 -21.1-19.941 108.56 108.56 0 0 1 40.888 30.278zm-32 0c20.817 24.593 32.282 58.919 32.282 96.655a166.162 166.162 0 0 1 -9.274 56h-15.112a184.044 184.044 0 0 0 8.386-56c0-41.517-12.811-79.514-36.07-106.992a128.724 128.724 0 0 0 -21.1-19.941 108.56 108.56 0 0 1 40.888 30.278zm-32 0c20.817 24.593 32.282 58.919 32.282 96.655a166.162 166.162 0 0 1 -9.274 56h-17.374a150.592 150.592 0 0 0 10.648-56 152.132 152.132 0 0 0 -79.864-133.763 108.533 108.533 0 0 1 63.582 37.108zm-135.718-39.345c74.99 0 136 61.009 136 136a134.612 134.612 0 0 1 -12.035 56h-219.965a79.607 79.607 0 0 0 -25.914 4.332 136.131 136.131 0 0 1 -14.086-60.332c0-74.991 61.01-136 136-136zm-96 208a64 64 0 1 1 -64 64 64.072 64.072 0 0 1 64-64z"/><path d="m80 400a24 24 0 1 0 -24-24 24.027 24.027 0 0 0 24 24zm0-32a8 8 0 1 1 -8 8 8.009 8.009 0 0 1 8-8z"/><path d="m198.343 245.657a8 8 0 0 0 11.314 0l32-32a8 8 0 0 0 -11.314-11.314l-32 32a8 8 0 0 0 0 11.314z"/><path d="m128 248a7.974 7.974 0 0 0 5.657-2.343l88-88a8 8 0 0 0 -11.314-11.314l-88 88a8 8 0 0 0 5.657 13.657z"/><circle cx="120" cy="336" r="8"/></svg>