<svg xmlns="http://www.w3.org/2000/svg" viewBox="0 0 512 512">
  <defs />
  <path xmlns="http://www.w3.org/2000/svg" fill="#00382a"
    d="M0 53.333v135.318c0 25.643 9.984 49.771 28.117 67.904l237.27 237.248C276.949 505.365 292.949 512 309.376 512c16.341 0 32.341-6.635 43.904-18.197l140.544-140.544C505.365 341.717 512 325.717 512 309.291c0-16.341-6.635-32.341-18.197-43.904L256.534 28.118C238.421 9.984 214.293 0 188.651 0H53.333C23.915 0 0 23.915 0 53.333zm170.667 64c0 29.419-23.915 53.333-53.333 53.333-29.419 0-53.333-23.915-53.333-53.333S87.915 64 117.333 64c29.419 0 53.334 23.915 53.334 53.333z"
    data-original="#000000" />
</svg>
