<?xml version="1.0"?>
<svg xmlns="http://www.w3.org/2000/svg" xmlns:xlink="http://www.w3.org/1999/xlink" xmlns:svgjs="http://svgjs.com/svgjs" version="1.1" width="512" height="512" x="0" y="0" viewBox="0 0 512 512" style="enable-background:new 0 0 512 512" xml:space="preserve" class=""><g transform="matrix(6.123233995736766e-17,-1,1,6.123233995736766e-17,0,512)">
<g xmlns="http://www.w3.org/2000/svg">
	<g>
		<path d="M256,0C114.833,0,0,114.833,0,256s114.833,256,256,256s256-114.853,256-256S397.167,0,256,0z M256,472.341    c-119.275,0-216.341-97.046-216.341-216.341S136.725,39.659,256,39.659c119.295,0,216.341,97.046,216.341,216.341    S375.275,472.341,256,472.341z" fill="#00382a" data-original="#000000" style="" class=""/>
	</g>
</g>
<g xmlns="http://www.w3.org/2000/svg">
	<g>
		<path d="M369.227,283.365l-99.148-99.148c-7.734-7.694-20.226-7.694-27.96,0l-99.148,99.148c-6.365,7.416-6.365,18.382,0,25.798    c7.119,8.309,19.651,9.28,27.96,2.161L256,226.256l85.267,85.069c7.734,7.694,20.226,7.694,27.96,0    C376.921,303.591,376.921,291.098,369.227,283.365z" fill="#00382a" data-original="#000000" style="" class=""/>
	</g>
</g>
<g xmlns="http://www.w3.org/2000/svg">
</g>
<g xmlns="http://www.w3.org/2000/svg">
</g>
<g xmlns="http://www.w3.org/2000/svg">
</g>
<g xmlns="http://www.w3.org/2000/svg">
</g>
<g xmlns="http://www.w3.org/2000/svg">
</g>
<g xmlns="http://www.w3.org/2000/svg">
</g>
<g xmlns="http://www.w3.org/2000/svg">
</g>
<g xmlns="http://www.w3.org/2000/svg">
</g>
<g xmlns="http://www.w3.org/2000/svg">
</g>
<g xmlns="http://www.w3.org/2000/svg">
</g>
<g xmlns="http://www.w3.org/2000/svg">
</g>
<g xmlns="http://www.w3.org/2000/svg">
</g>
<g xmlns="http://www.w3.org/2000/svg">
</g>
<g xmlns="http://www.w3.org/2000/svg">
</g>
<g xmlns="http://www.w3.org/2000/svg">
</g>
</g></svg>
