<svg xmlns="http://www.w3.org/2000/svg" viewBox="0 0 512 512">
  <defs />
  <path xmlns="http://www.w3.org/2000/svg" fill="#00382a"
    d="M0 256c0 141.167 114.833 256 256 256s256-114.833 256-256S397.147 0 256 0 0 114.833 0 256zm472.341 0c0 119.275-97.046 216.341-216.341 216.341S39.659 375.275 39.659 256c0-119.295 97.046-216.341 216.341-216.341S472.341 136.725 472.341 256z"
    data-original="#000000" />
  <path xmlns="http://www.w3.org/2000/svg" fill="#00382a"
    d="M283.365 142.773l-99.148 99.148c-7.694 7.734-7.694 20.226 0 27.96l99.148 99.148c7.416 6.365 18.382 6.365 25.798 0 8.309-7.119 9.28-19.651 2.161-27.96L226.256 256l85.069-85.267c7.694-7.734 7.694-20.226 0-27.96-7.734-7.694-20.227-7.694-27.96 0z"
    data-original="#000000" />
</svg>
