<?xml version="1.0"?>
<svg xmlns="http://www.w3.org/2000/svg" xmlns:xlink="http://www.w3.org/1999/xlink" xmlns:svgjs="http://svgjs.com/svgjs" version="1.1" width="512" height="512" x="0" y="0" viewBox="0 0 512 512" style="enable-background:new 0 0 512 512" xml:space="preserve" class=""><g><g xmlns="http://www.w3.org/2000/svg"><g><g><g><g><g><g><g><g><circle cx="256" cy="256" fill="#d13648" r="256" data-original="#7584f2" style="" class=""/></g></g></g></g></g></g></g></g><path d="m426.492 179.556-8.018 11.887-81.959-81.959-238.09 192.954 93.457 93.457-40.135 38.035 76.593 76.593c9.086.976 18.314 1.477 27.66 1.477 138.402 0 251.152-109.83 255.848-247.089z" fill="#a92838" data-original="#4855b7" style="" class=""/><g><path d="m445.988 234.546c0-48.221-39.091-87.312-87.312-87.312-2.403 0-4.782.097-7.136.288-7.513-45.988-47.428-81.084-95.54-81.084s-88.027 35.096-95.54 81.084c-2.354-.19-4.733-.288-7.136-.288-48.221 0-87.312 39.091-87.312 87.312 0 47.694 38.242 86.457 85.735 87.298v112.086h208.506v-112.086c47.494-.842 85.735-39.604 85.735-87.298z" fill="#ffffff" data-original="#ffffff" style="" class=""/></g><g><path d="m358.676 147.234c-2.403 0-4.782.097-7.136.288-7.513-45.988-47.428-81.084-95.54-81.084-.061 0-.121.004-.182.004v367.488h104.435v-112.086c47.493-.842 85.735-39.604 85.735-87.298 0-48.221-39.091-87.312-87.312-87.312z" fill="#e9edf5" data-original="#e9edf5" style="" class=""/></g><g><path d="m241 321.858h30v80.796h-30z" fill="#dce1eb" data-original="#dce1eb" style=""/></g><g><path d="m255.818 321.858h15.182v80.796h-15.182z" fill="#bec3d2" data-original="#bec3d2" style=""/></g><g><g><path d="m181.38 321.858h30v80.796h-30z" fill="#dce1eb" data-original="#dce1eb" style=""/></g><g><path d="m300.62 321.858h30v80.796h-30z" fill="#bec3d2" data-original="#bec3d2" style=""/></g></g></g></g></svg>
